/* XPM */
static char *_e99785f987b4c39b97c061683476597Qh1RATrZlo21PO7h[] = {
/* columns rows colors chars-per-pixel */
"64 64 256 2 ",
"   c #090603",
".  c #170801",
"X  c #02081B",
"o  c #151410",
"O  c #271904",
"+  c #361907",
"@  c #2A110E",
"#  c #382508",
"$  c #2A2417",
"%  c #342A14",
"&  c #312A11",
"*  c #030C24",
"=  c #091528",
"-  c #131B2C",
";  c #161726",
":  c #0C1C34",
">  c #141C34",
",  c #291827",
"<  c #142135",
"1  c #15243C",
"2  c #1B263A",
"3  c #112433",
"4  c #272826",
"5  c #24293B",
"6  c #36332F",
"7  c #1B2019",
"8  c #501915",
"9  c #791609",
"0  c #791A17",
"q  c #6D100D",
"w  c #4B3210",
"e  c #6E2815",
"r  c #463926",
"t  c #503230",
"y  c #7A2924",
"u  c #70322B",
"i  c #721821",
"p  c #714D0E",
"a  c #534831",
"s  c #6D4E35",
"d  c #6B562C",
"f  c #1C2A43",
"g  c #182744",
"h  c #1E3148",
"j  c #252C46",
"k  c #26344A",
"l  c #2A3954",
"z  c #33374E",
"x  c #384359",
"c  c #37464C",
"v  c #3D4B63",
"b  c #4E5053",
"n  c #6D574B",
"m  c #746A52",
"M  c #485469",
"N  c #4F566B",
"B  c #586477",
"V  c #5B6169",
"C  c #6E7071",
"Z  c #5B6267",
"A  c #890A03",
"S  c #871606",
"D  c #961709",
"F  c #881715",
"G  c #961C15",
"H  c #970C06",
"J  c #A6190A",
"K  c #A81A15",
"L  c #B31B11",
"P  c #89241A",
"I  c #982618",
"U  c #932712",
"Y  c #A72717",
"T  c #B62517",
"R  c #AE2611",
"E  c #882A26",
"W  c #992A25",
"Q  c #883528",
"!  c #983328",
"~  c #893735",
"^  c #973936",
"/  c #8E2D32",
"(  c #A72C24",
")  c #B62724",
"_  c #A73528",
"`  c #B73627",
"'  c #A93B35",
"]  c #B53C34",
"[  c #9F1C24",
"{  c #C6271D",
"}  c #C63828",
"|  c #C63C33",
" . c #D0352B",
".. c #C9191A",
"X. c #96463B",
"o. c #8A453A",
"O. c #A6453A",
"+. c #B64739",
"@. c #94702F",
"#. c #A0702B",
"$. c #C64538",
"%. c #CC4532",
"&. c #C37F2A",
"*. c #9A3D45",
"=. c #9A4845",
"-. c #99564A",
";. c #975956",
":. c #8A4E4A",
">. c #A64845",
",. c #BA4C42",
"<. c #A85956",
"1. c #AD584D",
"2. c #917054",
"3. c #B1665B",
"4. c #907369",
"5. c #A96A66",
"6. c #B7766A",
"7. c #A67874",
"8. c #B47471",
"9. c #A45D62",
"0. c #C64B43",
"q. c #C95651",
"w. c #C67975",
"e. c #D36F5C",
"r. c #7B8173",
"t. c #AD8D54",
"y. c #908872",
"u. c #AA8378",
"i. c #B8877A",
"p. c #A99372",
"a. c #A48E61",
"s. c #C99751",
"d. c #D6AA55",
"f. c #E9B858",
"g. c #F7BA57",
"h. c #EEB34E",
"j. c #C8837B",
"k. c #D0817D",
"l. c #DCB56A",
"z. c #D9B777",
"x. c #CCA96F",
"c. c #E8B967",
"v. c #F5BB66",
"b. c #E7BA76",
"n. c #F2BB71",
"m. c #E08872",
"M. c #F9C459",
"N. c #ECC25D",
"B. c #F9C568",
"V. c #E9C377",
"C. c #F7C877",
"Z. c #F2C971",
"A. c #787C88",
"S. c #6C778D",
"D. c #5D6B85",
"F. c #907A87",
"G. c #C87D81",
"H. c #7A8497",
"J. c #79878C",
"K. c #86878A",
"L. c #968A86",
"P. c #99958A",
"I. c #878A97",
"U. c #9A9998",
"Y. c #919597",
"T. c #A98884",
"R. c #B88989",
"E. c #A6948A",
"W. c #B6948B",
"Q. c #A79997",
"!. c #B79896",
"~. c #B48C94",
"^. c #A9A39B",
"/. c #B8A59A",
"(. c #B2AA8E",
"). c #8995AA",
"_. c #969BA7",
"`. c #959CB2",
"'. c #848CA3",
"]. c #A69CA2",
"[. c #B99FA2",
"{. c #98A6B0",
"}. c #AAA8A7",
"|. c #B6A8A7",
" X c #AAB4AC",
".X c #B8B2AA",
"XX c #A9AAB7",
"oX c #B7ACB3",
"OX c #B9B6B7",
"+X c #AAB6B9",
"@X c #9EA89F",
"#X c #C98987",
"$X c #C7948A",
"%X c #C69A97",
"&X c #D39491",
"*X c #E79890",
"=X c #D7BA87",
"-X c #C7A59C",
";X c #D5A79C",
":X c #CDB691",
">X c #E7B78E",
",X c #CD9EA3",
"<X c #C6A8A6",
"1X c #D7AAA7",
"2X c #C8B6AB",
"3X c #D7B5A9",
"4X c #C7B8B7",
"5X c #D6B9B6",
"6X c #CAAAB1",
"7X c #E5B9B7",
"8X c #EAB2AD",
"9X c #BBC3BB",
"0X c #D5C295",
"qX c #E7C686",
"wX c #F5C987",
"eX c #FAD388",
"rX c #E9CA98",
"tX c #F7D497",
"yX c #EFD397",
"uX c #D8C6A5",
"iX c #C8C5BA",
"pX c #D7C6B9",
"aX c #D1C9AC",
"sX c #F5D9A8",
"dX c #E9D5B6",
"fX c #E9CDAD",
"gX c #FCE6B9",
"hX c #FFE1AC",
"jX c #B9BAC5",
"kX c #ADB9CB",
"lX c #C9BCC7",
"zX c #D4BDC7",
"xX c #BCC5C6",
"cX c #BCC5D7",
"vX c #C6C6C7",
"bX c #D3C7C7",
"nX c #C9C8D3",
"mX c #D4D2CF",
"MX c #EED2D0",
"NX c #FCE9C8",
"BX c #FCE6D8",
"VX c #F7F0D4",
"CX c #D2DAE7",
"ZX c #EAD9E5",
"AX c #E7E8E7",
"SX c #FBE9EA",
"DX c #FEF7EB",
"FX c #FFEDF5",
"GX c #EAF6FC",
"HX c #FFF5F3",
"JX c #FEFBF4",
"KX c #F4FCFE",
"LX c #FEFCFD",
"PX c #FAF5FA",
"IX c #EAEDF5",
"UX c #DAE4E8",
/* pixels */
").S.H.D.2 = 3 = ; = X ; - 5 {.XXS.g 1 < 5 2 5 * x _.S.`.S.l g * : * > , @ 8 8 0 S S U D D D S 9 ! O.w.k.&X%X!.!.!.%X!.G.;.^ E 0 ",
"k = : h 5 3 3 = ; 5 c = ; 5 J.H.H.2 = = = - z N C `.kXF.j j j : : * g ,   @ s q P G D A A S A S 9 9 0 0 y u :.:.;.;.:.~ y 0 P P ",
"< = = 1 3 = 3 5 2 M V ; j 5 > < B k k 5 j ; < z z D.`.S.l j g : * > * @ t @ e y F F H H D D D G 9 9 9 9 9 9 0 S 9 0 A A A A A D ",
"= < < < - = 2 M H.H.B 3 = ; - 5 c 2 2 : - - = ; * M x D.B g h l > > X , , @ u i i F F F D A F A U S 9 9 A A A A H H H H H A A A ",
"= < ; = 5 2 3 5 B H.).H.2 2 5 * 3 : = * - z 5 = ; z > f x 1 h h k V 4 4 , 4.F.9.u / i F F F F G S S F H G K H H A A A A 9 S 9 9 ",
"5 5 5 < 5 < * X B +XH.v < < < : : = : c N '.S.N z * f f 1 f x v b {.v 3 b F.L.~.,XG.G.9.*.~ E i F F F [ F A A q q 9 P ^ =.-.-.;.",
"< ; - 2 ; X = 5 S.`.H.g f g : 2 : = : c B cXkX).M * j g g h v H.{.kX{.S.C Y.XXY.E.~.~.#X%XG.i.8.-.*./ i q i i u o.;.7.T.!.[.~.U.",
"; = - 5 2 X 3 v M h H.v g : k : g g g 1 h H.'.M * j f > l g l g M {.{.v J._.).Y._.].].].!.].!.!.%X#XG.F.4.4.4.F.E.P.Q.Q.Y.I.F.A.",
"5 - z B 2 * > 2 1 : k l h g = h g v g : v H.S.z > g j j g l g j M _.S.2 D.{._.J.}.U.U.^.^.Q.U.^.].~.Q.Q.Q.}.Q.U.U.P.U._.K.A.I.I.",
"x H.`.).c M k < h 1 1 1 3 1 g 1 D.l g : v : x D.g j g l h h g j M b ; o C Y.Y.}.K.E.Q.P.Q. X.XU._._._._.@XQ.P.P.P.P.Y.I.F.K.Y._.",
"k {.).{.kX).g 1 : 1 3 f g h v x ).l = 2 = j z j g j j N D.l l j ; z ; , b ~.Q.T.~.!.%X!.~.E.^.}.}.Q.P.E.E.T.R.,X!.u.4.4.L.P.].U.",
"* B cXkX).j 3 h 2 k f h h l H.H.{.B N k > = = ; 5 X * D.`.x M N z , o , t C 9.;.:.:.;.G.%XW.Q.!.Q.Q.Q.!.R.7.F.5.7.7.T.W.!.P.L.P.",
"1 B S.k D.x : = : 3 2 2 h 1 x `.+XxXS.7 b I.XXjX].F.D._.jX`.`.C 5 , , , @ i ~ ~ ! W 0 i ~ 7.T.T.u.4.:.t 8 u u t 8 t t :.p./.(.(.",
"1 1 h g = h l * : = 1 f l 2 1 J.xXY.C UXGXJXOX@XZXFXLXAXGXAX}.k > ; ; 6 8 u / W W ( ( P 0 8 8 8 8 s 9.F.R.%X%XG.5.;.t @ u 4.p.p.",
"h h g h g : * : : : 2 2 : = 2 M c @XAXvXn o a 6 7 6 Z 4XDXKXKXIXXXv 2 6 t i F ( ( Y ( G q q u 9.2XMXHXLXJXLXLXLXPXPXMXG.n e 8 -.",
"D.x l h x h k g c B '.`.B c b - m AXn O a (.aXdXNX:Xn % 7 y.iXKXGXGXUXK.b 8 y P ( ( ( W >.#XMXFXJXJXLXBX4X}.|..XZXSXFXFXBX5.8 e ",
"x l g l g 1 l : 1 j N `.kXXXC 6 mXa % :XrXqXz.z.qXtXhXgX(.a O 6  XGXKXLXFX[.:.u y e X.&XMXJXKXGXP.C r + 8 + + r @ a Z y.mXDXu.8 ",
"g g : : : : g g > * g `.A.I.N C C & VXdXrXz.b.V.b.C.b.x.sXVXuXC $ 6 P.JXLXJXDX<Xn ;.NXDXJXmXZ 4 r n 2.p.>X8Xx.a O   4 6 7 .XDXn ",
"j l j g 1 : * : > * M N > z V kXcXk 4 d y.rXtXb.b.N.V.V.wXqXrXNXgXp.% 7 C vXLXLXJXBXDXfXs O n p.dX0XdXrXb.>X#.@ w m :XDXP.. DXE.",
"g * g g h 3 X = * ; 5 > j * X D.GXKXvXZ & # a.qXyXeXV.l.l.z.z.qXsXVXDXOXt 7 M F.mXMXs w s :XNXNXuX0Xx.e #.eXs.s.=XrXuXNXJX$ bXMX",
"j > > X 2 J.{.Y.kXoXB z X l 1 * l S.CXPXAXy.% w d t.V.eXeXyXqXqX:X0XaXMXJXAXV   @ r m :XsXyX=Xt.x.w #.s.&.h.B.C.V.z.0XdXDX4 iXPX",
"j > M ).UXGXKXLXLXLXPXZXV : k l D.F.`.jXAXJXJX/.r # O w d t.a.=X0XdXaXaX^.a . m y.:XfXtXqXp x.p @.s.d.B.B.g.B.d.Z.z.qXVX4.a PXSX",
"j cXKXGXKXmXC t a }.LXLXLXA.h h l D.XXXXXXZ mXAXJXmXy.& . . O w w a d # . m :XuXsXeX3.p z.p t.V.d.C.N.g.g.g.M.N.l.z.dXy.% Q.PXzX",
"'.FXxXV b $ 6 ^.4.O s bXPXKX).5 j j A.XXXXJ.= b Y.UXJXAXP.b $ O O   w a.>XsX>X>Xs.w d.@.d.C.d.Z.M.h.B.B.v.C.f.b.qXsXd O !.FXFX6X",
"XXLXV o U.bXDXNXdXuXd O C VXGX@X5 , F.D.3 S.v 3 : 2 J.GXJX.Xr . d t.=XrXb.x.e #.b.#.C.C.C.c.Z.f.g.B.N.Z.eXz.0XsX:X% a pXJXSX7X%X",
"C KXKX4 K.JXmX:X0X0X=Xp.w O P.JXzXz j x : 3 3 h x D.xX Xb 6 n <X=XeXwXb.b.c.#.d.wXC.V.c.c.f.B.B.g.f.Z.l.x.sXgXy.& r.MXDXDX8XG.;.",
"  _.KXvX7 .XVX0X0X0X=XrXyXp.a & nXGXN = x h J.xXCXY.6 $ 4.MXfX>Xb.c.v.n.n.n.C.wXV.qXqXC.C.v.h.h.c.Z.z.yXgX(.t . (.DXJXNX#X:.i :.",
"b V mXKXY.o VXNX0Xz.V.V.z.tXsX4.o B KXCXcXGXGXJ.$ 6 E.BXNX>X>Xn.v.g.g.g.v.f.eXz.x.@.@.@.d.Z.C.B.c.qXhXrXn & 4.FXJXJX;X:.~ ~ / E ",
"r.{.XXGXKXZ 6 VXz.qXz.V.Z.z.wXVXmXr. XY.iXAXr.r (.NXgXz.l.V.v.c.B.g.B.g.v.h.C.s.8 w w # w z.c.l.tX0Xd w n zXFXBX;X;.y O.' W P _ ",
"= c J.kXKXIX4 m VXyXd.V.Z.l.c.x.dXDX(.% r p.VXgXsXz.z.eXN.f.M.N.v.f.g.f.B.g.v.s.#.x.gXt.. z.rX=Xn # a 3XPXPX8X;.Q U _ R D Y ` D ",
"6 3 Z {.XXPXvX. a.yXeXf.Z.n.n.wXz.rXgXNXsXgXyXyXz.V.d.l.Z.N.M.N.V.Z.B.h.g.h.g.v.wXb.z.m w (.y.O % iXDXSX5X;.i E I D T %.T J K K ",
"J.).H.`.x S.LX^.  a.V.l.Z.v.v.C.qXqXl.tXqXV.z.l.l.Z.N.N.N.N.Z.s.@.x.C.M.g.g.g.v.c.tXa.O a % %  XJXDXMXu.u i ! F Y J R L R L K Y ",
"nXkXkXkXI.S.cXLXP.. t.yXV.l.C.b.V.b.n.g.c.n.V.Z.N.M.M.h.B.V.x.O w d.C.B.g.g.v.v.wX:X+ @ t }.DXJXLX^.s t ~ Q I D D J J R R R Y ) ",
"_.jXjXjXnXIXLXmXC O . o.yXV.C.f.N.B.v.M.v.v.v.c.M.M.M.h.C.t.% O t.tXc.f.B.h.C.b.qXm % L.AXLXPXmXoXQ.7.;.u q S I J U Y _ _ Y W W ",
"}.OXXXoXAXLX+Xa w a.d . p B.d.M.f.M.g.h.g.g.N.N.N.f.c.C.s.w   d qXZ.f.v.g.C.f.wXx.&  XJXKXIXU.OX|.oX6XR.;.E 0 P 9 e 9 P P ~ >.3.",
"OXXX X.XJXPXa n BXfXx.x.&.f.h.M.M.g.h.g.g.g.N.N.c.Z.V.s.w O & p.wXd.B.B.h.>Xl.rX# m DXAX XY.oX}.oXoX[.~.~.8.5.;.o.o.s o.;.8.&X1X",
"9X X9XOXAXJXn y.VXx.rX2.l.N.Z.h.h.N.f.N.Z.N.Z.V.b.tXfXw O O a hXB.g.g.v.n.c.sX5.. r.DX9X}. XOX].].XX}.[.[.<X<X%XT.u.T.E.^.<X<X<X",
"vXvX9XOXmXLX X% pX# m p x.eXV.V.C.eXyXyXyXV.V.0X=X4.a . & O aXhXf.M.g.n.>X>Xi.# % m DXy.L.bXL.oX X+XOX X].!.[.[.|.}.Q.Q.^.|.|.}.",
"xXxXxXOXnXKXJX4 P..X(.uXhX0X:XsXaX0X(.y.m a w w + b C vXb & gXl.h.M.f.V.>X3Xw a n dXVXs a T.5X!.}.@X X}.}.}.].].}.}.]._.].|.oX6X",
"OXoXbXjXOXAXLXOX4 b m n a a r r & 7 4 c Z r.^.5XSXPXPXIXr (.yXN.g.M.V.x.NXm $ E.NXSXsX-.y o.#X-X^.^.^. XoX|.].].Q.XXXX}.].}.|.|.",
"!./.5X5X4XzXZXJXZXE.Z 4.F.L.Q.5XmXKXFXLXPXFXPXJXZXZXPXI.t dXl.N.g.B.V.fX(.  C JXMX*Xq.+._ P =.&X-X!.Q.,X<X%X!.Q.].|.}.|.}.|.|.|.",
":.5.j.:X1X8X7X7XSXFXSXFXPXPXFXFXFXSXZXMXZXMX5X6X<XZXPXb y.yXN.M.C.c.0XaX4   b DXe.O.R ` | ] ! =.&X,X;X&X%X,X<X!.!.!././././.|.<X",
"Q Q X.O.3.3.3.3.<.8.&X&X#X&X#X8.3.>.*.;.w.&X#X8.T.FX.X6 0XqXN.N.b.qXgXm C b m FX1.$.%. . .| ( [ 1.9.3.9.<.<.<.;.$X%X-X/./.(.-X-X",
"$.` R U I I ! ' ' O.' X.>.=.=.>.0.] ] G _ X.E u -XJXa m yXz.N.N.z.gX(.  4.C MX7X] %. . . .| ' >.y E / *.^ E y y 6.6.i.i.6.u.7.u.",
"$.%.%.` R R Y Y $.` +.$.0.,.+.$.} %.%.T T I Q -.VXMX+ z.yXl.B.c.yXVX@ s E.MXBX1.] ` T } } +.] *.^ *.*.^ ! _ ! ! P Q Q Q u y u u ",
"+.} %.%.) R D R R ) %.%.%.%.| %.%. .%.%.} U Q $XDXm w qXV.c.f.C.NXm s BXSXSX1.' 0.$.$.%.] ' ,.9.G.&XG.>.E ! _ I U ! ! ! ! ! W ! ",
"%.$.$.0.+.` R R J R { }  .| %.%.%.+.%.%.$.! :.MXMX& a.qXN.V.c.tXuX# BXBX*X^ I +._ +.+.O.O.1.k.*X7X7X1Xw.O.! U U U U K K K [ [ ) ",
"0.$.$.$.$.$.` ` Y D Y `  .| %.%.$.%.%.] ] ' 6.DX(.O :XqXl.V.Z.hXw 4.$XX.P G 0.( +.O.O.-.6.;X8X8X5X4X5X1Xa.Q U ! R J K K K K K K ",
"$.%.$.$.$.$.,.+.O.U P W ( ] %.` %.%.$.0.>.^ fXSXw 2.fX=XrXz.gX5.p *XQ X.! ' W ' ^ <.G.;X2XiX4X+XjXjXlXMX1X9.u P U D K T K K K H ",
"$.$.%.+.+.+.1.-.j.j.m.3.! P ] 0.%.$.0.' >.6.BX:X+ i.fXfX(.sX0Xw #X1.E E / >./ <.#X,X1X5X4XxXcXxXjXnXoXoXMX,X-.E _ U D J K D G A ",
"q.+.O.O.O.6.$X;X3XfX8X&X5./ P ' +.+.1.X.2.1XDXn a.VXp.a O r % s R.u ;.-.5.#Xj.1X8X7XpX4X4XOXjX+XjXlXlXzX5X8Xw.0 P P Y I F 9 9 A ",
"X.+.3.t.$X;XpXdXaXaX2X2X;X5.~ *.-.3.$X1X3XJXMX4  Xr.& O & . a 2XT.5.;X-X%X%X3X3X5X5XbXbXbXvXjXlXjXjXzXzX,X7X*X=.^ ^ E y i y =.w.",
"2.j.;X7XdXpXiX9X9X9XiXiXpX-Xu.#X3X;X3XaXOXLXU.7 b o O O o y.SX/.2X4X2X6X.X^..XQ.Q.^.}.OXlX4X4XjXjXlXoX<X1X8X,X#X$Xi.4.;.4.7.~.<X",
"3XaXpX5XpX4XvXnXxXxX9XvXbX4X<X2X-XaXpXvXvXKXC X   & 4 C BXAX].|.oX|.}.}. X}.Q.}.^.Q.Q.Q.[.[.,X[.OXOX4X<XR.5.<.;.$X3X/.^.|.Q.P.P.",
".X9XaXiXbXbXnXnXmX9XxXvXvXvXOX}.^.2XOXOXvXUXlXI.J..XSXLXbXQ.Y.}.}.@X X X}.^.^.|.|.Q.T.R.~.&X,X1X<X2X1XG.*./ / i 5.!./.E.U.U.].oX",
" X9XOX9XbXzXzXzXmXvXnXxX9XvX9X.X|.2XoX4XjXXXIXCXPXZXmX|.].].oX_._._.U.].^.!.5X$Xn u u :.<.8.w.#X;X8Xw.E / ] / / 3.%X/.L.Q.].Q.Q.",
" X9X9XvXnXbXlXnXnXnXxXxXxXiX9XOX^.2X|.oXjXjXjXlXOXOXOX4XOXoX}.oX}.oX.X!.!.1X8.=./ / / ^ E / ! ^ 1.X.! G [ ` ( F -.$Xp.W./.E.!.~.",
" X+X+XOXlXnXnXmXnXnXvX9XvXvXbXiX:X-X<X4XoXjXlXvXlXlX4X4X4X4XOXiX2X|.-X;X8Xw.*.0 ( [ I G G Y ( ! ! Q I I K ) ( P +.&XW.W./.E.!.[.",
" X XOXOXOXvXvXnXxXxXmXvX4X5XpXdX;Xu.W.5X5X4XbXvX4X4XpXpX2X.X/.|.3X3X8X8Xw.^ I ] J J J J K Y Y Y U ! Y Y K Y Y P 1.x.j.p.T.u.R.$X",
"^.@X^.|. XOX9XvXmX9X9XiXMXMX&X6.3.s :.$X5X5X6X5X<X3X3X3X;X%X%XW.j.j.3.1.( G K K H J J L T T R Y Y R R K Y ` Y S Q O.X.o.o.u =.:.",
"/./.-X/./..X4XiXvXpXMXpX;Xk.1.O.+.X.Q t.8X7X;X1X8X;Xj.6.<.o.o.X.X.! P F I ( J A D J R { T L T T T T L T T ` ` I S P F P E F W E ",
"$X;X;X;X1X1X3X5X5XfX8X&X1.O.] 0.%.%._ O.w.*Xw.6.-.X.o.U W / ! ' P I _ ( G D D K R R R R L L T { { } { T R Y ( G D G U G Y W [ [ ",
"5.8.6.w.w.#XG.k.*X#X<.,.,.0.0.|  . .` I Y O.' ! ! I R R ) { ..) ) Y I Y J D D Y R R R R R L T { ) T ) ( ] O.O.9 P S G G F [ F G ",
"u u ~ X.=.*.*.>.^ ' ' ,.0.| |  . . . .} Y ( +.] ` Y R L ......L { ) Y D D U U U U U U R R T { T  .) ( 0.e.n.m.+.O.W ' ] ] ,.,.q."
};
