/* XPM */
static char *df515ea1e4b2454e8ef2f93fea34def0jZNddM2hLJL9d7Ek[] = {
/* columns rows colors chars-per-pixel */
"64 64 170 2 ",
"   c #3B2E1D",
".  c #39371F",
"X  c #143B23",
"o  c #203720",
"O  c #2A3520",
"+  c #213F24",
"@  c #2B3B21",
"#  c #491B14",
"$  c #521713",
"%  c #5E1110",
"&  c #541F14",
"*  c #5A1F13",
"=  c #7A0004",
"-  c #7F0408",
";  c #770C0B",
":  c #7D0D0B",
">  c #69130F",
",  c #7C100C",
"<  c #641512",
"1  c #681712",
"2  c #641B13",
"3  c #4B271A",
"4  c #472D1B",
"5  c #542115",
"6  c #5A2215",
"7  c #512518",
"8  c #5A2A19",
"9  c #41371F",
"0  c #4F351B",
"q  c #632E17",
"w  c #0C4326",
"e  c #094129",
"r  c #0E4C29",
"t  c #174E28",
"y  c #1B4E29",
"u  c #00542C",
"i  c #0B532C",
"p  c #005C2D",
"a  c #244223",
"s  c #2C4122",
"d  c #264E27",
"f  c #354223",
"g  c #395427",
"h  c #04642E",
"j  c #08612F",
"k  c #18652D",
"l  c #006531",
"z  c #116B30",
"x  c #1A6B30",
"c  c #34722E",
"v  c #327931",
"b  c #5B5123",
"n  c #664C21",
"m  c #4A752D",
"M  c #53712D",
"N  c #537C2F",
"B  c #676627",
"V  c #666829",
"C  c #65752B",
"Z  c #840004",
"A  c #8E0001",
"S  c #820C09",
"D  c #950001",
"F  c #9B0001",
"G  c #960B05",
"H  c #9E0B04",
"J  c #9D1005",
"K  c #A20001",
"L  c #AA0001",
"P  c #A20A04",
"I  c #A31506",
"U  c #A91707",
"Y  c #AE1907",
"T  c #A51B08",
"R  c #AC1E09",
"E  c #A6200A",
"W  c #AC240A",
"Q  c #AD2D0D",
"!  c #B3240B",
"~  c #B32D0D",
"^  c #AF350F",
"/  c #B2320E",
"(  c #A73D14",
")  c #B63C11",
"_  c #B93E12",
"`  c #8F4218",
"'  c #974719",
"]  c #B54615",
"[  c #BB4313",
"{  c #B64814",
"}  c #BD4914",
"|  c #B0591C",
" . c #966924",
".. c #937F2C",
"X. c #AA7625",
"o. c #BC7C25",
"O. c #C54813",
"+. c #C24E15",
"@. c #C45C19",
"#. c #C95D19",
"$. c #C6611B",
"%. c #CA641B",
"&. c #CB6C1E",
"*. c #D3701E",
"=. c #C37A24",
"-. c #DA7E22",
";. c #4E8431",
":. c #558230",
">. c #6D822E",
",. c #8D8C2F",
"<. c #92922F",
"1. c #9F972F",
"2. c #8D9D33",
"3. c #959631",
"4. c #9C9830",
"5. c #AA872B",
"6. c #B48128",
"7. c #A9A131",
"8. c #B0A332",
"9. c #DB8424",
"0. c #D58826",
"q. c #DC8B26",
"w. c #DF9027",
"e. c #D5962B",
"r. c #DF9428",
"t. c #E08F27",
"y. c #E39628",
"u. c #E49B2A",
"i. c #E59D2A",
"p. c #EC9D2A",
"a. c #C0A731",
"s. c #C3AF34",
"d. c #CEAA31",
"f. c #D3AD31",
"g. c #C6B234",
"h. c #D8B634",
"j. c #E4A12B",
"k. c #E9A52C",
"l. c #ECA52C",
"z. c #ECAC2E",
"x. c #F1B12F",
"c. c #F8B12F",
"v. c #E5B632",
"b. c #EFB230",
"n. c #ECB531",
"m. c #E4B833",
"M. c #EEB932",
"N. c #F2B531",
"B. c #F1B631",
"V. c #F2B932",
"C. c #F3B932",
"Z. c #F3BB32",
"A. c #F3BB33",
"S. c #F4BC33",
"D. c #F4BD33",
"F. c #FBBE33",
"G. c #EDC536",
"H. c #F6C134",
"J. c #F6C234",
"K. c #F7C234",
"L. c #F7C435",
"P. c #FCC334",
"I. c #F8C535",
"U. c #F9C735",
"Y. c #F9C736",
"T. c #FAC836",
"R. c #FBCA36",
"E. c #FBCB37",
"W. c #FED038",
"Q. c #FFDC3B",
/* pixels */
"L F D D F F F D F D D F F F D F F F F F F F F F D F F D F F F F A F L F K K K K D D F F F D F F F D K F F D D F F F F F F F F D ",
"D F F D D F D F F D D L K F F F F F F K F K K L F F F K K F K F F K F K K F F F D F D F F A D D F F D D F K D D F F L K D D D F ",
"F F F D D D F K D F F K F K F F F F F D L L D F F F K L F D F L K K F D F D D D F K F A D F D F F F F K F F D D F F D K F D D F ",
"F F F F K F D F D K D F F F L F F L L F D K K F D D D F D D F F K F F F D F F F F F F F F D D F K L F F F F F K F D A F K F F F ",
"F D F D F F F L F F D F D D F F F F F F F D K F F D D D D D D F F F K K F D D D D D D D F D K F D F F D F F D D K F F F F D F D ",
"F D F F F F F K K F F F F F F K K D A K K D F F F F F D F D D F F D K K L F D D D D F D F K A D F D D D F F F F D A K K F D F D ",
"F F F F F F F F F F F F D F F F F K F F F F K F K K F D F K F F P K F F F F F D K F D D F F K F F F F F F D K F F F F F F D D D ",
"D F F F F F F D F F F F F D F D F F K F F L F F F F K F A D D D D D D D F F D D F F F F F F K F F F F F D F F F F F A D F D D F ",
"D D F F L F F F F F F F F F D D F D D F F K F F F K K K @.$.#.#.$.@.%.Q D F A D D D D F D F K F F F F F F F F K K D D D F F F F ",
"F F F F D F F F D F F F F K D D F D F D F F F F F F F P S.E.E.E.E.E.Q.%.D G F F F F D D F F F F D F F D F D F F F D F D D D F D ",
"K L L F D F K K F D F F F F F F D D F A D F F F F F D G z.S.Z.B.Z.n.E.#.D D D D F F D D F F F F F D D D F F F F D F F D D F F F ",
"F F F D D F K F K F F F F F K F F F F D D F L F F D D H b.H.Z.S.S.S.E.#.D F F K K F D F F F F F D D F F F F F K F A F F F F D F ",
"F F F D F F F F K F F F K F F F K D F F F F F K F D D F b.H.S.S.Z.Z.E.@.A D F F F F K F F F D F K D F K F K K F F F F F F F F F ",
"F K F D K F D F F K F F F F D F D D F D F F L F D F W %.B.S.Z.Z.Z.Z.S.y.+.! F D D K F F F F D F L K D F K F D D F F F F K F D F ",
"F D F K F F F F F F F D D F F F K F F D D F D P [ q.Z.L.S.Z.S.S.Z.S.Z.K.E.Z.u.@.J A F F K K F F F F D F F F F F F F F K F F F F ",
"D D F F F F F F F F F F D F K F K F F K D F } k.E.H.Z.Z.Z.S.Z.S.Z.Z.S.Z.Z.S.D.U.z.@.K F F F F F F F F F F F F F F F F F F F F F ",
"F D F F F D F D F F F F F F F F F D D F Q u.U.H.Z.Z.Z.Z.Z.Z.S.S.S.S.Z.S.Z.Z.Z.Z.S.E.u.T D D F F D F F F D D F F D D K K K D F D ",
"F F F F D F F F F F F F K F D F L F A } H.L.Z.Z.Z.Z.Z.Z.S.S.S.S.S.S.S.S.S.Z.Z.S.Z.Z.L.B.Q D F D K F K F D D F F F D D F F F D D ",
"F F K K D D F F F K K L D F K D F F +.U.S.Z.Z.Z.Z.Z.Z.Z.Z.S.Z.S.S.Z.Z.Z.Z.S.Z.Z.B.S.Z.D.n.I F F K K F D F D D F F F F F D D F D ",
"F F F D F D K F F F K F F F D F F ^ H.Z.Z.S.Z.Z.Z.S.B.Z.S.S.Z.S.S.Z.Z.Z.Z.Z.S.Z.Z.S.Z.Z.U.q.F L F F D D D F D F F F F F F F D D ",
"F F F D D F L D F F F F F F D F F y.L.Z.S.Z.S.S.Z.Z.U.E.D.Z.S.S.S.S.Z.S.E.H.Z.S.S.Z.Z.Z.B.L._ F F D D F A D F K K K F F F K D D ",
"F D D F D F F F F K K F D F F D / J.Z.A.B.S.S.Z.D.H.9.} k.D.Z.S.S.Z.L.9.+.k.H.Z.S.Z.Z.S.Z.U.q.D D D D A F F D F F F F F K F F F ",
"F D D F F F K K D D F K F D F F %.E.A.A.A.S.Z.S.B._ F D u.H.Z.S.S.N.E.-.D P w.L.Z.Z.Z.Z.Z.D.Z.I D D D D D F D F K D F F D F F D ",
"D D K F F F F F D F F K F F F D 9.U.A.A.A.A.Z.L.$.A D H i.H.Z.S.S.N.K.=.D F U b.Z.Z.Z.Z.Z.B.J.[ D F F F F D F F F D F F F F F D ",
"D F F F F F F D D F F F F K D D q.L.Z.Z.D.Z.Z.D./ D A D r.U.S.S.S.n.P.5.Z F D &.E.J.J.J.U.S.W.$.A H F D F F D D F F F F A D F F ",
"D F F F D L F D F F K F D F F K w.L.Z.Z.Z.Z.Z.P._ D F S d.H.Z.Z.S.Z.K.3.> K A Q j.u.u.i.i.u.l.$.F K F F F K F A F D D F K F F D ",
"D F D F F D F F F F D D L K L K -.L.Z.Z.Z.D.A.H.w.H D 7 g.F.Z.S.S.B.P.2.  K F K K F F K L F L K K K L K F A F A A D F D F F F F ",
"F D D F F F K K F D F S * 8 8 # X.P.Z.Z.Z.Z.D.Z.J.j.| V f.F.Z.S.S.M.P.3.e 6 6 & 6 5 5 6 & & & 5 6 * 6 7 , F D F F D F F D F F A ",
"D D F K F K F F F F F D 5 i l p m F.Z.A.Z.Z.Z.A.Z.D.E.Z.Z.D.S.S.S.S.K.1.u p u p p l l j p p p p p p u 4 G F F F K F F D D F D F ",
"F D F F F F F F K K K K F : @ p j f.J.Z.D.Z.Z.Z.D.D.Z.Z.Z.Z.Z.S.S.S.D.Z.d.3.C g + o a s @ r p u p a 1 F F A F F F D F F A F F F ",
"D F F F F D D D L F F F D F D 7 u :.P.Z.Z.Z.Z.Z.Z.S.Z.Z.Z.D.Z.Z.S.S.Z.Z.F.P.F.x.0.] G Z 3 i l u 9 Z K F D F F F F F F K F F F K ",
"F D F F D F F F F D D F F D D F , X <.P.Z.Z.Z.Z.D.Z.D.Z.D.Z.Z.D.Z.Z.D.Z.D.B.Z.S.K.U.l. .j l y 2 L K F F D F F F F F F D K K D F ",
"D K F F D D F F D F D D D K K D F D 4 ,.P.F.Z.Z.Z.Z.Z.Z.Z.S.S.S.D.Z.S.Z.Z.S.Z.Z.Z.Z.S.P.s.b Z K F L F F F H F D F K F F F F D D ",
"F F D D F F F D F F K F D K K F D F F < B s.K.P.S.Z.B.Z.Z.S.Z.Z.Z.D.S.S.S.S.Z.Z.Z.Z.Z.Z.P.c.~ F F K F F D F D F D F F K F F L F ",
"F F F F F F K F D D D F K K F F F K D F Z . N 7.n.K.P.P.S.Z.Z.D.D.Z.S.Z.Z.Z.S.Z.Z.Z.S.S.Z.H.z.I F F F F F D D D D F F F F F F F ",
"F F F D D D F K D F D F K F K F D F F D L F $ w k N ,.e.S.S.Z.D.Z.S.Z.S.F.Z.Z.Z.Z.Z.Z.Z.S.B.E.&.D F F D D F D F F F F F K K F D ",
"F F F F F D F F F F F D D D F F D D F F D K L , w p u d n.S.D.Z.Z.Z.D.M.b.A.U.S.Z.Z.Z.Z.Z.Z.S.z.H D F F F D F F F K D F F F D D ",
"D F F F F F F D F K F D D F F D D D D K D A F ; i i i l n.S.D.D.Z.Z.P.4.z M 1.Z.F.Z.S.Z.Z.Z.D.Z.Q D D F K F F F D D D D F F D F ",
"F F K F D F F D F F F F F F F T +.O.} } O.{ O.n p y < f v.S.Z.S.Z.B.P.3.e % X v v.S.Z.S.D.Z.Z.P.O.D D F F K F F D F F F D F F F ",
"K F D D D F F K F D F K F K D ^ L.L.L.E.U.U.E.8.p . K G B.S.Z.D.S.Z.P.6.Z L 8 u >.P.B.Z.Z.Z.Z.U.} D F F F F F F F F F F F F L L ",
"D D D D K K F F F F F K F F D I n.A.Z.Z.Z.x.A.n.x < F P B.Z.Z.D.S.B.E.*.D K : u c Z.Z.Z.Z.Z.Z.U.{ A D D F F F F F F D D K F K K ",
"F F K K F F F D F K K K F F F H i.J.D.A.Z.Z.A.P...Z L H b.S.Z.Z.S.Z.P.o.A L F X ;.F.Z.Z.Z.Z.Z.S.) D F F K D D K F D D D F K K F ",
"F K F F K F D D D K F D F F K F %.E.Z.A.A.D.A.D.Z.~ = 0 v.D.D.D.Z.B.P.3.O S F q g.F.Z.S.Z.Z.D.B.Y D F D D F D D F F F D D F F K ",
"F F D F K F F D F F D F F F F F W A.A.A.Z.A.D.A.H.c.B p v.A.Z.D.S.Z.P.3.p y ' p.K.Z.S.Z.Z.Z.U.q.F K F F D F F D F F D F F F F F ",
"F K F F F F F F F D D F F F D D F -.U.S.D.Z.Z.D.Z.S.P.a.M.D.A.D.S.Z.A.d.<.d.H.H.Z.S.Z.Z.S.Z.U.} F F F F D D D F D D F F F F F A ",
"D F K D D F F K F F F D F F K D F R x.D.Z.D.Z.Z.S.Z.Z.F.D.A.D.D.S.S.Z.P.P.P.Z.Z.S.S.Z.S.B.P.y.F A D A F F D F F D D K F F D D F ",
"F F F K D F D F D F F F D D K D F D { U.S.Z.D.Z.Z.S.Z.Z.Z.D.A.A.S.A.A.Z.Z.Z.Z.Z.Z.Z.S.Z.S.S.W D F F F F F F F F F D F F F D F F ",
"F F F K F F D F F D F K D D F F F F F #.P.Z.Z.D.Z.Z.S.S.S.D.H.A.A.A.D.D.Z.D.Z.Z.Z.Z.Z.S.S.[ D F F D F F F F F F F F F D A D D F ",
"D F F F F F F F F K K F F F K F F F F Z ..G.H.Z.Z.Z.S.B.S.A.S.A.S.S.S.S.S.B.S.S.Z.Z.E.h.( F F D D F F D F F F F F F F D D D F F ",
"F F F F F F F F K F F K K F F K F F K 1 X ' p.U.D.Z.Z.S.Z.Z.A.A.S.Z.S.Z.S.S.Z.S.K.P.q.g # K F F F F F F D F F K L F D F F D D D ",
"K F F D F K F F F F F F F F D F F D F 1 > F G #.z.E.U.S.Z.S.S.S.S.Z.S.Z.S.S.H.D.y.) K - 2 D F F F K F F F F F K F F F F D F F F ",
"F D D F F F K F F D F D D F F F F F D F F F D D H +.q.B.S.Z.S.S.S.S.S.H.S.j.-.~ F A D K F D F F K F K F F F F F F K F F D D F D ",
"D F F F D D D D K D D F D D F F F F F D F F K F D D D E z.H.Z.S.S.S.U.9.R H F F K K D D D F F D F F D D F D F K D F F K F F F F ",
"F D F F K F D F F F F D F F D D F F K F D F F F F F F F u.H.Z.S.S.n.E.#.A K F D F D F F F K F F F F F D F F F F K D D D F D F F ",
"F F D F K F F D F F D D D D F D F F F F F F D F F F F F i.H.Z.Z.S.n.U.#.D G F F A D D F F D F D F K F F D K D F K F D D D D K D ",
"D F F K L F F F F K F F F D F F F F F F D D D D F K F D i.H.Z.S.S.S.E.#.D K K F F F D D F F F F F F K F D F F F D F D D F F F L ",
"D F F F K F F K F F K F F F F F F F F F D F D D F F F D u.H.S.D.S.B.E.#.A F F F F D F D D F F F K F F F F F L F D D K F D F F F ",
"F D D F F K F F F D F F F K F F F F F D D D F F F F F F W ^ Q Q Q ~ / T F F D F F F F F F D F K K F F F F K F F F D K F D F F F ",
"F F F F F F F F F F D F K D F F K K F F D F D K D F F F F D D D D D D D F K F F F F F F F F D F K F F F F F F F D F D F F F F F ",
"K F D F F F F F D D F F F F F K F D D F F K D F F D F D D F D F F F F F F F F F D F D F F F F D F K F F F F F F D D D D F K F F ",
"F K F F K F F D D D F D D A K D D D F D F F D F F D D D D F F F F F F F D D F F F D F F F F F F F F D F D K K F F F D F F F F K ",
"F F F F K D D D A D F F F F D F D D F F F D D F F F D D K D D F K F F F F F F F F D F F F F F F F D F F F F K F F K D D F F F F ",
"K D D F K K D F F F F F D F F F D F F D F F D D F F F D D K F F F L L D K F F F D F F F F F F F F D D D F F F F F D D D D F D F ",
"K K F F F F F A D F F D F D D F D D F F F F D D D F F F D F F F F F F D D D D F D F F D K F F F F A D D F F F K F F D D D D F K "
};
