/* XPM */
static char *_ddbea43ab454ded9bf28af9e956a945F4CGNc8LXnAJysF2[] = {
/* columns rows colors chars-per-pixel */
"64 64 77 1 ",
"  c #3E2E1D",
". c #36351F",
"X c #3B331E",
"o c #253D23",
"O c #2B3C22",
"+ c #343720",
"@ c #323920",
"# c #551E14",
"$ c #5C1E14",
"% c #760E0C",
"& c #7C0C0B",
"* c #6D140F",
"= c #73130E",
"- c #7A110C",
"; c #661511",
": c #6A1711",
"> c #631B12",
", c #701610",
"< c #4E2517",
"1 c #4E2619",
"2 c #442D1B",
"3 c #4A2B1A",
"4 c #542215",
"5 c #5B2115",
"6 c #512618",
"7 c #592418",
"8 c #522919",
"9 c #5A2818",
"0 c #42311D",
"q c #622015",
"w c #0E4D29",
"e c #154526",
"r c #1C4525",
"t c #164B27",
"y c #1B4927",
"u c #17472A",
"i c #1B4729",
"p c #134C29",
"a c #194B29",
"s c #04552C",
"d c #0B522B",
"f c #015C2D",
"g c #14502A",
"h c #065A30",
"j c #244224",
"k c #294124",
"l c #224A28",
"z c #304225",
"x c #00612F",
"c c #006431",
"v c #006932",
"b c #850506",
"n c #8C0103",
"m c #890304",
"M c #880607",
"N c #8D0507",
"B c #80090A",
"V c #850A09",
"C c #8B0908",
"Z c #930101",
"A c #920002",
"S c #960001",
"D c #910304",
"F c #950204",
"G c #950304",
"H c #900405",
"J c #980001",
"K c #9B0003",
"L c #9C0001",
"P c #9C0101",
"I c #9F0002",
"U c #A20000",
"Y c #A00002",
"T c #A70001",
"R c #A40002",
"E c #A80002",
"W c #A90002",
/* pixels */
"TJSSJLLJJSJUJJJJLLJJUJJLSJJSJJLKnLELLUUYJALLSAJUSSLJLJSLUSJLJJJJ",
"SLLSJJJJUASTUJLLLJLULUUTYJJTTJUUJULRULLJSSSLJAJJJUJJJUASJLEUJJSL",
"LJLSSJLUSJLUUULJUJJSTRJJLJTTUSJTTUJJLJSSJWJASLSJFUULJJJALLJUJAJL",
"JLLJLLJLSLJJJUWJLTELSUTLSSJLSAJLLJLLJJJLLJLJJSJJUUUJUJJUJAALUUJJ",
"JSJJJUUULSJLASLLISJLLSULJSSSAJJUJLTJLSSSnSSJLAULSJLJJLSSULJJJJJA",
"JJJLSLJUUULLJJLUUSAUUSJJLJJSJSSLLJJWWSAJSSJJJUAALSSSJLLJSAUULJJS",
"LLLLSUJJYJJLJJLJLULLLLULUTLSJUJJULJLLLJJUUSSLUUFLLUJLJULSJJULSJJ",
"JJULLLJJJLJLJJJJSLTLJTLJJLUJSJLLLLUALLSSJLJLLJULJLSLSJLLYUnSJSJJ",
"JSSUULLLJLUKLJSSJSJLULLLULUUSSUJLSJLLLnSSASJJJULJUJLLLJUIASSJJLJ",
"UJLJKLLLJJJLLUSSJSJJLLJLLLLLLULULJLLJSJULSAJJLUJSJJJJAJIJSJJSJLJ",
"YUULSJLUYJLLJJJJJSJnnLULJJJALUJJLLLLJJSSJLSSLLLJJJJALJIIJJLSSJLL",
"LILJJJUUUJJJLLULJLLSSLTLKSSSUJSLLLLLLSJLUUJJLLJLSJJJLULUJAJLLLJJ",
"JLJSSJJLULLUTLJUUSJUUSLULALJSJJLULLLSJJULLULLJALTJLUIUILLJLLUULJ",
"UIIJUUJLKLLJLJSLAAJSSLTLJLLLLLLNBULULWLSFUUJUJJLTLSKLUSnJLJJLJSJ",
"JJJLLLLLJULJSJJJUILSSKJULJUJSLT$3JSLLLLUSSLJLWJJLLSLUSJKULLULLJL",
"JSJLJJLJJLLJJJULLUKUJSJUJJLULSL@tnSJULJLAAUJJJUJLJLJSLLLLLLLLJLL",
"JASJLJJSLJJLLLLLLSSLJLUJJLSJLUVws=LHJUJSSJJJJAJUSLLJSSJLASUTUJJS",
"JUUJSJLLJLLUULJJTLASLUSJJUUSATqff3UUJJASLLALSJLSUJTJSJJLLSSJKSSS",
"JJTUJJJLJTTTSLUJJLLLJJSSSLUSAJzxciLLSSJJSJLJSLUJUTJSLAAJLLJLJJJS",
"LLLJJAULJLULJSAJULJLLFULUJAJJ&dxff=LAUULLJLJLJLUKJSSJJJJLLUSJJAS",
"LLJJSUUSLJLJJLJLLLSJJJLULAALU5fwdc2LSUULULULJSLUJSALASLUUYLLUUAA",
"SJSJSLILLTUSALLJSLJLLLLJUSJJS@cO2caFWJLLSJTLSJLJSAJnJJJLLJLLULLJ",
"LJALJLLUJJLLLSJLLSJULUULJLUJbdv$%ff:TLLLSJLSLTLJSSSSJLJLUSLLSULJ",
"ASIULLLJSJJUULJSLLFTJJJLJSST5fdCSyc2UJLLUJLJLTULJLJJJJJLJSJJLJJS",
"AJLLLUJAAUUJLUSJLUUSJJLULSASOv@LU0crnJJSLJULJLUSSJJSJLSALLLJASJJ",
"JLLJJTJSJLUJSLJUJLJLLJLLJSL&sc$JU:ff,USJSLULUUSSLTLJLUSAJSSLUJLJ",
"SJSJJJUJJLSSTUUULLULTULUUTT4ctNJTJrc0LLUUJLUWLTLUTEUJSJSASJJLJJL",
"JSSULLLUUSJB597454455544554rfr545qosi4#444754#454554%LJLJSYSSLSS",
"SSLUJULLLLLF4dcfffccfcvcxfssfscccfcffffffxxxffffffs2NLJJUJLSSLSL",
"JSJLLJJLUULTL&OfffdOkjjjjjtfhojjlkjwswokljjkowsffj:LLALLLJSSASLL",
"JJLLLSSJUJLLSLA1sfs+MSAMHHox@FFnbSU8xtVSHGSF<sxs2MTSSLJLJLLTLLLU",
"JJUJALLJIAKJJSFU-jffj&USJ&dx>TFSSJW=ff:LJLVXxxt>WUJJSJLLILJAUUSJ",
"SULJSJLLJJFJJLTJJN2scd8AW8ctNJKUSSJAlcXJA$txfXCLUTLLLUJJJULSJSJS",
"LLSJJLJAJLUSSUULJLL*iffO&kc+UAJUJLJJ3ct% ffp$JTLJULLJJAJSLJLUIUL",
"JLJLLLUKSSSSUUFLLUSLCXfxpwf:LSLUJLLL&sstcf@&JSSJLJJJJSSASLJYLJUK",
"JLLJJAJUJJSKUIUJSLJSTL>effp-WJAJSJLLmufdd7FJAJJSJLJJJJJJUJLUUULA",
"LLLLJSJUJJLJSSLLASLLJUT%effa=JLJSLJ-rdfd>TLSASKUJJLLJSJUIUJJILJS",
"SJJILJJJLULSJSSJLJJTSSU-swdcf0HUUn6dcddf>LAJSASULSSUTJLJAJSJJJJJ",
"LJUJSLJFJLLILLJKUUUJLST3xt;Ovcj,Bkffr;oc+SJLJLLUTLJLLULJAJLJSLLL",
"ULJSJLJULSJULULJJUTSUJSjc+Un3shppxsXNW8cgVSJJJUSJJJJJLJLLLUJJJET",
"AKSJYLJJUKLUKJJJJLLSJL-sc:JUT4wfxh2LJU&sf>LSJKJJSSSJJULLJLAJUULU",
"JJUUJULSJUUUJLLJUUSSLT3caALL>txfdcp4JTSjv.ULLJJLLSJJUASULJSSJUUL",
"JLLLLLJSSUJSJLTUFJJLUStx0WC2sfd7>tcf+&W6cpCUUJJLTJJJSJASJLLJJLIU",
"ULALTLLJLJLJLKJLLSLLU,fs=-jffO&LUVXfct:Vdv>UJLJSLLLJALLJLLAJJLJF",
"LLLLJJLLJSJJLJJJLLJAU3vt0sch8AJJLLJqdxf jvOLAULLUJJJJSJJASLLUJJn",
"JJTJSLJULLJJJJUALLJLnavdfcj=EJSLJLUUB@cfsfsBJAUJASALJSJLSAUJJSJL",
"JJLUJJSLJLJJJSUJLJSL*sccs2bLLTJSSLUJUA4dxxx5TJJJSLJJLJLUJJJLJJJL",
"JJKUJLJJJSLUSSJJULLL2ffa:UJJAJJSJLALSSL=jfxOJUJLJSJUJLLLJJUAAJJJ",
"JLJLILJLILULJKLLLLJAufXMTULTJAJLLSSLLLSLA3fdVTJSJJLSJLUJJLJSJSJJ",
"ULJJJJJLTJJTTJLULJU:e>TTnLUJSSSJLAJJSJLSJL:t4LJLULJJJLJUTLASLJSJ",
"ULLJURLSJLJLLJGLJJL:%TJLLJSJJSSSLJSALLSJASTV$ALLLULJJJLLULJJSJJJ",
"JSSLLJULLJJJSKIJJJKJUSSJLLSJLLLJJLLJJJJLLSSTJJLLLLUUJKUIILUISJJJ",
"JJJJSJJSUSSJSSUJUJJJJUTJJJSSJJLJJJJUUSULUUSSSLLJLJJSJSLUKIJYULJL",
"JSJLTJJJJLKJJJSJLJUJSJJJJJUJSLULULJUJLLSJSJJLUJFJUJSJJJULSASJSLL",
"LLSLTLJJLULSSJJSLLJJLLSJJJJLJJLJSSJLLJLJnJSJLSJJLUIJJLSJULSSJJUS",
"SJUYTJJLKUJJJJJJLLLLSSJSUULJLUJJJLWJLLUULJSJJLUJJLUKJULJSJSJJJJT",
"JJJUTLLUJLTLLJJLJJULAJSAJIJJJJLULLJJJJJULFSSSLLLTLJIJITLSSUJALJL",
"LSSJJULLJSLLSUULJLLSJJLLKLJLJSSJJLJKLJALILLJLSLUUJLJJULLLSTLSJLL",
"LJJLLSJLSSSLUJJUUULJSJJUJJLJUSSSJJLJLWJLLJJLLJSLULJLJLJLSLSLLJJL",
"TLAJUJLLSJLJJJLLLSJLLLJJJJJASUJSLLTSJLJLSJJLJLJSIUJKULLJASAAUULL",
"JULLUJLASJJSSAUSSSJJLJJLUSSSJLJLLLUJSJLUJJLLLJJJJLJJSUYLLJJLJJUU",
"JLJJUSSSnSLLLJSJSSLJJSJLJJSSLSJLLLKJJJLJJSLLLJULJAJLJLUILUSSJLJJ",
"USSLLUSJJLJJJJJLSJLSJLSSJLLASULJUTTSULJLJJLJLLJUJSSJJLLJJJAASLJL",
"UULLLULnSULSJSSLJJJJLLAASLLJFJLLIJJSSSSLJLJSUJJUJAASLULULJSSSSJU"
};
