/* XPM */
static char *_654003107917[] = {
/* columns rows colors chars-per-pixel */
"64 64 69 1 ",
"  c #261407",
". c #281507",
"X c #271509",
"o c #291709",
"O c #2D1A0C",
"+ c #331D0E",
"@ c #391E0C",
"# c #2F1B10",
"$ c #331E11",
"% c #36200F",
"& c #3B210E",
"* c #362213",
"= c #3B2414",
"- c #3D2817",
"; c #3C2619",
": c #3E2A1B",
"> c #3E2C20",
", c #412615",
"< c #432917",
"1 c #4B2C17",
"2 c #422719",
"3 c #432C1C",
"4 c #492E1C",
"5 c #46301F",
"6 c #4C321E",
"7 c #52331D",
"8 c #58351F",
"9 c #432E21",
"0 c #492F20",
"q c #463122",
"w c #4C3423",
"e c #4E3826",
"r c #4C3628",
"t c #4E382A",
"y c #513623",
"u c #543925",
"i c #5A3C25",
"p c #513728",
"a c #543B2A",
"s c #5A3E2A",
"d c #553E30",
"f c #593F30",
"g c #623F29",
"h c #5E4026",
"j c #57402E",
"k c #5D412D",
"l c #574031",
"z c #5D4331",
"x c #5F4836",
"c c #63442D",
"v c #69462E",
"b c #6A482F",
"n c #634632",
"m c #6B4731",
"M c #654935",
"N c #6B4B33",
"B c #664B39",
"V c #6C4E39",
"C c #714E35",
"Z c #724F39",
"A c #6E503A",
"S c #735137",
"D c #72513B",
"F c #79553B",
"G c #7D593F",
"H c #7D5B42",
"J c #805E44",
"K c #826047",
"L c #846249",
/* pixels */
"MNMVVMMNMMNMVNNNZvvvcMbMcccNNvcmccvnncmnbbbbmMNNbNNNVbMbNvNCNNbc",
"wyy6766w6yyy446yuiakikikckkkkckssgccskkukkknkkcccbbcccvckccckchk",
"uyyew545553-==-<3=--333553354166ww66y567yyyy77yaiyahkhckkkkkhjur",
"w6y66yw5655433--2==3-35355355wrypureuuuuyyypaaahakiaiakiahjkjuew",
"iii87777117641177647675<44345666656w55660yyy0wyy6ww4y666666667e6",
"iiyiy78y4<yyyiuiy7y47765e6uuasaaauwyww0w0900043054;33<-333:5--45",
"6www444w33yppyypashjjjjjuwaprrw5wq33993903090w09qqqwqrqqqewqqqwq",
"<<<====333<434<<<,-<<==-=&=,&=<-====*=$$==$=;$$$**=$++%*=*=*-%%*",
"jkaaejjjsassskcshhjujihhhkknmznnkakkgsfgfkscuiuyyyyuwryw7ee7ueeu",
"skjaauhzznMmMMMMnMMMMzzNMzNkkcnfkmMnBBVNVBNBVMMBMMBzcMMxzxxkzMxn",
"uusjuaqeyypwwqw5535555-3:-:::-:::::<:99990w0qrrrrurttpasjjejutsa",
"pteeejjerwrrwrqwe>5>5>>>:>::q:99993:999>:9:33:2::339339955555q5q",
"jzspjjjettrrrrrwr5qwqq55qqq>00993390>99>9:3>3:33:9333:909333qqq5",
"w3rq>>->>>>>9>99>>3:qqrrwwqrrqr0q90q0999:999999999999999qrrrwtpp",
"q9>:>::::;>;****;;::>5>5>>>q999rq99qqrrrrrrtppptpppapdpdddlddaat",
"####Ooo$$O##X#$;****$OOO**+O$=2;;33;$$$$*;**;339933:33:3:3;;::::",
":**%*%****%-*-:3=<<-,-24443434w4544543---=,-=;2;-==3::<-===333==",
"nkkzznxMnkznMzznnczmcnnczkkkkcssskasjjjjsasfaaapyaapauasspszfzMx",
"VNCNSSAANVSSSVAAVSCZCFDZCSSSDDZNMMVNckbnnkssssssskjjskzmMznznMxz",
"VSbbchcvvcNbNNMbcccccccgggkikscsiiuiiuaiiuuassiiyyy7y6yyyayyy7yw",
"hu7yu7e7w666666654441444546666w466665677yyyuyuyy7uyw7wuuauauuuuj",
"-35555555qwwq5qq5q3q5qqwrwqwwrwwruuyuuayupuuuuuuayuuuuaassaiauja",
"6we56555555q55q>:5>::>::q>33999q3wwruywyyyuuyyyyy6yyyuuy6yayy7yu",
"-&=-=**%+OOOoXooX X XoXooooO+++*&+=%&=,=,3-4344454<4<<44<<3,4445",
"3=995qqqqqqqq:qqq>>:99q9>:999333:33-==:-:=-=====2==**=====$@;$;=",
"3:qq5q5355:9::--:=:::39::939395wqwqqruprtewwqw0wq9qwwqwe0999w090",
",=345-353<3-3<<<-<3444ww4ryyyyyrssiissksjhjjasaaiasjkkzkfsnMfnfg",
"BBMzznnzsnkjkjzjjjzkffssssssnksssjkzszkzzzklkjkksMnzkckzMnnnmnMM",
"ppspteuuapuweeeeryewwqw33303:=*:;*;>;;;;>:**:*;;;::3>555qq:5wrw6",
"qw9rwweww5wwqq5555qqwq999999>9>>>>;>:;:;>>>>:;:>:>99q>qrtatrprrr",
"aaasaasuaaaaewwewwqqqrrqq9rr9q99>q>>rqq>>>>>>>qrrqrtrrrrrrrqrwrr",
"uaaywww443w633:3:33-=-::39;$*;;=>;**$*********####o#OOOOOo#O$+=,",
"6535766666654444234333,==+$$$*+%##$O$$$#O#****=;::;:3::::;*:-35w",
"eeuhhajhkkkczsnnnnMMznnnzzdslajjjttrtrqqq5qqq>93:39333--33446666",
"66175666667667yyy44746664w64w5w6qeww4<334-453444614417<1yi88g8ic",
"6hauuuehu8yuyuuyyuuyyye664666wy66wwywywry7y8y76ui8yyy7778i878iii",
"weeeeee7yeeww6wyyayyyeyyuuaaiaijaahjsuuaauuuyy7yy4yyyyuy77e7877u",
"wwweeuu676666yy6046ryeyuywyyyyyyyw56w7uyaaiuuyyuuu7ypiasjuuhuahu",
"nmMNMnmMvnMcckkhiayyyy7e677yyyuiiikkkkccccncnnncnsisnmnkzkzncckk",
"ksccMBnMnAMMMMBBVBnmxMMnBBMVMnnnncncncjkkkkssssciggfssskznnnzzkz",
"*$$OOOoOOOOOOOOOOOOO+O++$+$$=$==*%=*$====2=$;2<;2322<24<<<4<<=,4",
">99:>:>:::::::::>q>qqrwq999qqqwwwqtwrparrrpppppppasfspdszkjjzzzj",
"qwqwqwqw55wwqq5555wwwwr50w000330043w00w0wwww000rwwwrwrrreeaeauau",
"akjjsskkkjksjjjkkjkjakjanffsnzfnzzkjsfnznszfsuppuaipaappjueweeye",
"mVVNNVMNMVmmmMvMmcmmNmNVmNZZVBVNMMNMMMNMMMmMMmMnmMMmMnzMMnzxcnnn",
"ckknvccvcckcksuiuisssssgsssncggsisszscnMcnnfssnzsMzkkdssppuyuaau",
"p3usaaaaspsay65593w4434<23332,;22,-=====$==;**==;*==**=*$=;*;;:3",
"9-w5q555q3w555q5329333w9:933:339933=:::;:=;****$*****;=;;;;=;;:3",
"prwqqq3ww943wwywyyw043332;;=2393322=;;=3-:<666aaaww4wuppaewewwwa",
"wwwreeptprrtyyyyaasfsffsfsffzsafxffzzlnBBBVVNVMnMzMmMnzkzkjauesp",
"euuaeeuwwwwwrwprwwpwwpapppappppayypprrryypyawyypiuppyyyyywwwrewr",
"ewwwwwwraewwwryypwwppprpp0ypyyw4wrwqw95ww5w5553wrwqwrwrrwrrqweta",
"w55555w355555w550w0wwwqqw0ww493w3www65w6wwwqqqqwqwwqrqrrrrtrqeee",
"jjkjkaaaaauaypjaaisspadsassaapaapu6eeeeww55ww3539033333335535qqq",
"VDHASAASSVVAMAVMMnfNMMnnMnnnckkkhjuuuauuuua6w6040wwwwwwpepuuajjk",
"iiuasisiiiiiaiyypiiyisiiikskssskjhkkkjskzkkknfnsssfcnkgkckkikikc",
",&@&@+@%@@@@&&@@&%@@&&%%&&&&-&&=--3<4<,<<4<2<<,,<<16411661771711",
"wyrr6ee6ryywywwyye6eeweeeeyee7euy7uyeyuuuuaauaaikkccvcNvNVNbbccs",
"uueuuueuuywyywwye7yyy6y7yyyu7eyyu7ayyauhiiiiissiihiiiikhkkiaiyy6",
"ikhahahhsiyy7iy7u8uikauihaah7ui8aiihkhkhigiiiigihhhkhchhihkihykh",
"cckccvcvccgiccvvbbSNbCbbNbbbbbbbbvmmbbbbCmCCCmmCNCSSVVCNVbbbbbNS",
"GFHHHLKKGKGJKGGGGKGGGGJGFFFFSFSSZSFCSCZCCmCCmCCNCNbbbbbbbcccccvb",
"SADAAANNSVAAVASCSVSSFSSSSSNSbCNmNmvNbcvcgssccikhkhkkkiajkuuhikjn",
"w7ia77<68878a8778hiiii8ccihcccccgigiiiiiiy7w7766666ee66eu7666566"
};
