/* XPM */
static char *_653535ad5e44c1becca9b4f53aa5c8fHZGLTb7ZP3zlvxkL[] = {
/* columns rows colors chars-per-pixel */
"64 64 92 1 ",
"  c #2F1516",
". c #341717",
"X c #321817",
"o c #3C1817",
"O c #371918",
"+ c #3B1C1A",
"@ c #3F201C",
"# c #411716",
"$ c #441917",
"% c #4A1A17",
"& c #421E1B",
"* c #4B1D19",
"= c #531717",
"- c #541B17",
"; c #5B1B17",
": c #531C18",
"> c #5C1D19",
", c #641D17",
"< c #641E19",
"1 c #691F19",
"2 c #43201D",
"3 c #4A201C",
"4 c #5D221B",
"5 c #64221B",
"6 c #6B231C",
"7 c #64291D",
"8 c #6D291D",
"9 c #72241D",
"0 c #79261F",
"q c #752B1E",
"w c #7C2B1F",
"e c #6C2A20",
"r c #7B2720",
"t c #742E21",
"y c #7D2C20",
"u c #773121",
"i c #7B3221",
"p c #822D1F",
"a c #80301F",
"s c #832D20",
"d c #882F22",
"f c #843222",
"g c #8B3222",
"h c #853926",
"j c #8C3924",
"k c #933523",
"l c #993724",
"z c #933923",
"x c #953B23",
"c c #903B24",
"v c #953824",
"b c #973924",
"n c #933C26",
"m c #943C26",
"M c #943D26",
"N c #963D26",
"B c #993B23",
"V c #993A24",
"C c #9B3A24",
"Z c #9C3B24",
"A c #9B3C24",
"S c #9C3C24",
"D c #9D3D24",
"F c #9F3C25",
"G c #9C3E25",
"H c #9E3F26",
"J c #933F28",
"K c #A03E25",
"L c #A23F25",
"P c #A03F26",
"I c #A23E26",
"U c #A33F26",
"Y c #964026",
"T c #994026",
"R c #9B4026",
"E c #9D4126",
"W c #9F4026",
"Q c #9E4328",
"! c #A14025",
"~ c #A04227",
"^ c #A34227",
"/ c #A34327",
"( c #A44127",
") c #A44327",
"_ c #A84427",
"` c #A24528",
"' c #A74629",
"] c #A94529",
"[ c #A7482B",
"{ c #AA492B",
"} c #AC492B",
"| c #B14B2B",
/* pixels */
"~~)WZgq]]]{]`'~~WAb6`{]{''`~`SSS5W}'}''``/QSS5A}'}['``))VS5%>:::",
"VSBAPgf~SS~ZSASVSSbsWSZ~SASSSSSS6JSS/VAAAAVVP6VZATHAAAVVSP6;<<>4",
"SSAASxySSSSBASSSSSBwAPZZAASSSSZZ6bPSASASSSSAS6cPSAAASWSSSU6>1<<<",
"VSSSSkfVVVS~WSSSZPVfcVBVSWSSSSZP6cVVWSSAAWSS/9kVbHSASSSZS~6>9614",
"sssdgs6sssdgfsssfgd6pssfgfsssdfg5rdssggsssdgk60dsdddsdssgk<,999<",
"jnMJccjcMbgf>jJbMMzjcbkjg>jJnbccjcbcjg>*333**&33*&&$fAJMcjnzgcgy",
"S//'(/PPPSS~6A~)]~P~PDAS~8S(/](//PSAZ/5&2222222+@2@+A(/]))~P~A)j",
"ASAAZAVVVVAS5VZZVZBSSBABZ6vSbSAASVAAAZ6+222+&2&&2&@&jSVVVVVMSSSf",
"ZZZPSSSPS~SS8bSAZZDZD~WWZqVZZUPZSSHSS(9+&&&2&&&2222$cAAAZPSSSS~j",
"dgpfgkgfggkk6ygfggkgfgggk6ygffgfgggggc5X+..+O++.O+O+ygggggkfggkf",
"qywifq5qwqwq6qyyyiq5wyqyw7qwsyyy5tyryt6e47777%477474qyyify58rtw8",
"~P~DUgw{~]{`/~~~ZPkt~)']))~~~SQS<T'`}`Q())PPP5T]]}]`/SWSVS6M{`{c",
"xDxBSksSVSZVAAAAVZVsZBSSSAAAVVSS5bSSSSAAZVVSS6zZVAAASSVVZZ6jABPf",
"BZZZVkiSPSSZAAAAZBVyZ~SVSASSSSAS6MPAAASSZZSVW6kUASAAZZSSSP8g)D~f",
"VVASWkslkxVPZZVSPPZskxlVWAAblSPZ6gbbASSVVVZS~9gvvVSQVVBUSPedvkZj",
"66689656e66e6576665>555766669e6945966866e66q655e6e666e6669>66668",
"TWW`TTWAAMnb>$=%%%=----;;:MWWQTTWSTMxV5j`WQTS~TAVMV6jPT)QWPTYMAf",
"STS'WAAWSSSS5>11,65161611<ZPW~~SASSVBP8B~A'WSSSSVSPsV~S~WWZ~DZDh",
"VSSSASAADBSS5;1,,,,,,,,,<>bZAAAAAASSBW9jPAAAAASSSSSykSDBxBBSSZBh",
"VVVSWAATZDPP6599616161151>bBVVWAAASSSPqgVxASWASSSPSskBBDS~ZSSZ)g",
"0wwwssyywppp:,661,<999911>wsssgfsspgsk6qsdsffsy0ysp69rwwssyywppy",
"wiiwy84yiuyuuqwuqqq:$%%*&*********:%**%=-%:--=qiiiuuuyiwqw>tiuie",
"~)~P~ks}']}]]~((P)P5@2232222222+o;>>:>><<<<<1<~]]}]))))P~PeS{'|Y",
"BBbbAkfSVAVVZVVMBBB4@2222+&&&&2+$,1<1<1<<111<>VZBVAABBBvVS6gZASf",
"BZZZZViVPDDZASSSZVS7@22222222222$;<<<<<<<,<<1;MPSSSSDWZDS~8g~S~f",
"gkkbZdwgdgkBbkkklbb4XO..+@+++++2$9rr9119961<1;sggkVSkgkkBZ6sggkf",
"fsfaffqsgggs6yfsffs847777%$$$$$$*;,,<;;0wwwy0qwfggf6wfsfsfqyfggi",
"W'~{Q~W~~SZV5A)/'))~///WP<*>>:;;;;>;<<>S'`['~~WWAAS9z'~{]W~~BDWf",
"xBZPZDZSBMAS6nDDSSSAAVVAZ5;<<<,6<111<1>bZBSSAASVAASykZBPSSASSSSf",
"BSZBBZSZSZSS6xPVSASSSASnP6;<,<1<<<<<<<>b~SSSSSSVSASyxPSSASAVSS)h",
"kkkZDVVvSSSAqgbkVAVVbbAAS6609611999111>gkkbAAbblZVQyfbkbAAVvVVPf",
"qwwqw0qqrwww46wwyyy9rryyy><161<<1<161,:ewwwyyrqryyy<6wwyyy0qw0yt",
"22222+4WWTTWTTTAMng5TWWQTYSTAMMg>j~WWTMTWTMbz4j/TWTTATWnzz7j~W`h",
"*22+2.8'W/'/(SSSSAVfWWW]~WWSSSSP6T~~'W~SSDSSS6ZP)'~~WDAASA6x~S]j",
"@2222+7PAAVSSABAASbyAASSSSSAAAAS6nSSVSSSDZVAS6cDSBVSDZAVAS8gPZSf",
"22222+qPAAS`SSWWP~AsAASZ~SSWSWSP6VSSP~SSZZ~~PqkUSD~SZDP~W)qgPZ)h",
"....+X>yyssfgsyspgp6yssssfssssgg<tsssffpsssff5rsysffppssff<qwsss",
"uiiitiyiiitr:wiiifitiiytq>yiiiuiuiywtw>qiiiiiuiiuy0>qfiifiuuiiue",
")_{{]_U)~PQP6T]]}')_~~U~P6Q]'}](~))P)P6W]]}]]_((~P~sB}_}}()U)P)j",
"BxAAVBBBBVVZ6nSVBASBVbVAS6zSSVSVZZVVBB6nAVSSVVVVBVZwjSVVVVZlBBZf",
"BSVZSSSSSSSZ6bASSSVSSVSASqcVZSSSSSSQA~qgPVZSSSSVSSAyjSSSZSZZSVSf",
"gkkkVbbkvB~lqfkkkVbbbbASltdbkkVVvkkvAS6fvkkbckbkVVArgkkglZkvvbPh",
"7665554<5565:55656554<555:>555<55<<566:5765565><556:>65<5555>e6e",
"cMxznseTTTTMSJnnccg:@&&&&&&&&+++oYTATnWMbMVjv>*:%*%::::;-;:fTYTf",
"DZZZPks)UP]PUSPSZSle@22222222&22*H/P((SPSSZSP5;<<><<<11111<SPP_j",
"BZZBDkiPZZVVDSVSVVV5+2&22+2&+&2+$MSSVVSSSAVZU6;<<61<<1<<<<>gPVZh",
"ZDPL)kpDZZZ~DSZSPSP6+&+2&&222222*AAVHPSSSSSSP6>961<1111151;kPVPj",
"wwppp0600ssfsywssfs: OOO++...OO.#rrysfdsssfvg1109911611,<,=erysr",
"iiiiiuuiffi04iiiiiiuuiiiq>tiuuuutiiffy:*33*****2%**#qiiiiiiufffu",
")]_|])_)ZS~P5~_]}'))_)P~U6~]]}]]]U)ZSP7@22222&2+&++&S]]}{])~WS~h",
"VSBVAVVBAAAA7zZVBABABVSAA6zAAAAAVSZBVS6+222&+22&+&&&jSAAAAAABBDf",
"AZZZSZZZSSAS6bSSSAASZZSSPqMDSSSSSS~ZZ)8+2&22222222@*bSSAAAAAZD~h",
"fgfkkkkgkkZl9fkgkbkgggkzk8sfgkkkgggkbV<X+XO+++OO++O+sfsgkkggggBf",
"ssfspw55<565=5666665yiysa6wsfsiy5wsyyf844e744*444474rsffys6qssst",
"S~~BZg>:::*::;:;,;;6/''[]'WWWAAA<T'`{'`')~WAP1S}}}}'QWWAAS6n[/{Y",
"VAMBZV5<1<,11<1111<0SVD~BDBABBSS7MSASSVSSAMAS6nZAWAAAAAVSS6jSA~f",
"ASSZZc,,<<,,,,,1<<<6APAASSZVQSAZ6VSSSAASZSSAH6cPSSASSSSZS~6jPZPf",
"bVVVPb56696166611,,9bkkASVVlVASS6jbkAWVVVMAASrgbbbAVAVVVB~8fBvBf",
"yyyysy>616666691e11>yisryyyyyyfs>yfyryyrryysf5qfyyyyryyysf5qfist",
"W``'Q(WWSAbk,A))`//QHQVbb5J'/`(QWTWAAV5J'/]`QWSQAAA9h'``/WWWSSZf",
"VS~)SSQSZV~SeVQZ/HSHSSVZZ6SWS(QSSSBBAS6APHPPWSSSAASsVQV//SZPSASj",
"VSZZSVZSZVZS,jUZSVSASSZZP6vSSSZSSSZDAS6nPZZSSSSSAAAykPZAVSZSSSSf",
"bVVSZZVPSSSSekZVVHSASSPZPecVVVSSSSZDA~qzMVVSSASSSSSygHVVZSSMVMWj",
"sgggvggsggkg6sggdvgddgdkk6sgggggdgdfkk6wggggkgddggkqyggggvdddgkf"
};
