/* XPM */
static char *c51e4e6308e44631c6c5a47dbef7ccf01mrmyy4yrJ93ocxN[] = {
/* columns rows colors chars-per-pixel */
"64 64 224 2 ",
"   c #010001",
".  c #090000",
"X  c #010A0B",
"o  c #0A0B0B",
"O  c #120101",
"+  c #1D0101",
"@  c #010C12",
"#  c #000E1B",
"$  c #0B1713",
"%  c #00121B",
"&  c #151818",
"*  c #1B1B1B",
"=  c #240202",
"-  c #2B0103",
";  c #370000",
":  c #211E1D",
">  c #3A121B",
",  c #0A2F18",
"<  c #382B18",
"1  c #001524",
"2  c #021C2B",
"3  c #001E35",
"4  c #221F22",
"5  c #1B2324",
"6  c #012234",
"7  c #002838",
"8  c #03293F",
"9  c #252423",
"0  c #292727",
"q  c #2A292A",
"w  c #2A3D22",
"e  c #313A20",
"r  c #312F32",
"t  c #343737",
"y  c gray24",
"u  c #420000",
"i  c #540000",
"p  c #5D1A0E",
"a  c #6C0101",
"s  c #770706",
"d  c #75120D",
"f  c #661A13",
"g  c #771114",
"h  c #4D2719",
"j  c #442C1B",
"k  c #562316",
"l  c #531E33",
"z  c #621826",
"x  c #761D2D",
"c  c #4C2E36",
"v  c #712935",
"b  c #0A4C27",
"n  c #144929",
"m  c #194828",
"M  c #05552C",
"N  c #08572B",
"B  c #015D2D",
"V  c #034C31",
"C  c #015E31",
"Z  c #224427",
"A  c #00622E",
"S  c #006431",
"D  c #006932",
"F  c #002C4A",
"G  c #01324D",
"H  c #19354D",
"J  c #013553",
"K  c #013856",
"L  c #0A3A54",
"P  c #023B5B",
"I  c #2D3754",
"U  c #013D61",
"Y  c #6A2A41",
"T  c #00584F",
"R  c #2A4B5D",
"E  c #024163",
"W  c #02456A",
"Q  c #04486C",
"!  c #12476D",
"~  c #014B76",
"^  c #054974",
"/  c #024D7A",
"(  c #02517D",
")  c #2D5175",
"_  c #386178",
"`  c #444343",
"'  c #49494A",
"]  c #514F4F",
"[  c #5B5A5A",
"{  c #744F4F",
"}  c #6E5B61",
"|  c #656767",
" . c #6C6B6B",
".. c #7B666C",
"X. c #747676",
"o. c #747878",
"O. c #7A7A7A",
"+. c #850304",
"@. c #8D0102",
"#. c #84090A",
"$. c #950001",
"%. c #9B0001",
"&. c #96070A",
"*. c #8B0D16",
"=. c #9A1113",
"-. c #A20001",
";. c #AA0001",
":. c #A50D0B",
">. c #B60101",
",. c #A81314",
"<. c #982D2E",
"1. c #AC3A3B",
"2. c #C50101",
"3. c #E50000",
"4. c #F52D2D",
"5. c #DD461D",
"6. c #E54820",
"7. c #833C40",
"8. c #8B4A4B",
"9. c #9E4C4E",
"0. c #A55556",
"q. c #856768",
"w. c #907477",
"e. c #BF7576",
"r. c #E96846",
"t. c #748879",
"y. c #87807C",
"u. c #004D82",
"i. c #035583",
"p. c #025887",
"a. c #095887",
"s. c #035B8C",
"d. c #035D93",
"f. c #125B91",
"g. c #205E8E",
"h. c #036398",
"j. c #03659A",
"k. c #33688E",
"l. c #036BA3",
"z. c #096CA6",
"x. c #046EA9",
"c. c #0471AE",
"v. c #0970AA",
"b. c #0B71AB",
"n. c #0374B3",
"m. c #037ABB",
"M. c #0779B8",
"N. c #2476A5",
"B. c #416F93",
"V. c #5C7991",
"C. c #717080",
"Z. c #027DC2",
"A. c #007DC8",
"S. c #B27D80",
"D. c #0D80BF",
"F. c #308ABB",
"G. c #7CA591",
"H. c #4783A5",
"J. c #458DB6",
"K. c #5D9ABB",
"L. c #7599AE",
"P. c #609DBE",
"I. c #0581C5",
"U. c #0484CA",
"Y. c #0D85C8",
"T. c #1486C5",
"R. c #0589D2",
"E. c #0288D4",
"W. c #268EC8",
"Q. c #0B99E8",
"!. c #4E99C1",
"~. c #66A4C6",
"^. c #6CB0D6",
"/. c #7FB8D5",
"(. c #868585",
"). c #928C8A",
"_. c #939394",
"`. c #939797",
"'. c #9D9D9D",
"]. c #A69A97",
"[. c #8699A3",
"{. c #949DA2",
"}. c #9AA5AB",
"|. c #88A4B3",
" X c #A4A3A3",
".X c #ACA5A3",
"XX c #A5AAAC",
"oX c #AAAAAA",
"OX c #B1ABA7",
"+X c #B7B1AD",
"@X c #A5B2B6",
"#X c #B5B5B5",
"$X c #B6B9B9",
"%X c #BCBDBD",
"&X c #C89D9E",
"*X c #C1B9B5",
"=X c #D7B7B7",
"-X c #ABBFCB",
";X c #9BC1D7",
":X c #B9C6CD",
">X c #C4C4C5",
",X c #C4C9CA",
"<X c #CBCBCB",
"1X c #DCCAC4",
"2X c #CCCFD1",
"3X c #C8D4D8",
"4X c #D5D5D4",
"5X c #D0D8DC",
"6X c #DCDCDC",
"7X c #E5DDD9",
"8X c #DBE4E9",
"9X c #DFECF4",
"0X c #E3E3E3",
"qX c #EAE7E8",
"wX c #ECECEC",
"eX c #F5EEEB",
"rX c #FBF2EE",
"tX c #EAEEF1",
"yX c #EBF3F5",
"uX c #F4F4F5",
"iX c #FCF6F3",
"pX c #FFFBF5",
"aX c #F2FDFD",
"sX c #FDFDFD",
/* pixels */
"%.%.$.$.%.%.$.-.%.$.$.%.%.%.%.$.-.$.$.$.%.%.$.%.-.-.%.-.%.;.%.@.$.%.%.$.$.%.%.$.%.%.$.%.%.%.%.%.%.%.$.%.%.%.$.%.$.%.%.%.$.$.%.;.",
"%.$.%.$.-.;.-.$.$.$.-.%.$.%.%.%.$.$.@.%.%.%.$.$.$.%.%.-.-.%.;.%.-.-.%.;.-.%.%.%.;.-.%.-.%.%.%.%.%.%.%.-.;.$.$.%.%.$.%.$.$.%.%.$.",
"%.%.$.%.-.%.%.%.$.$.%.%.%.%.-.%.%.$.%.$.$.%.-.%.$.$.%.%.$.%.-.;.;.%.$.%.-.-.%.%.%.$.;.;.$.%.%.-.%.%.%.-.-.%.%.$.-.%.$.$.$.%.$.%.",
"%.%.%.%.%.@.$.$.%.%.%.%.%.-.-.-.%.$.$.%.$.%.%.%.%.%.%.$.%.%.%.%.%.$.$.$.%.%.$.$.%.;.%.$.%.;.;.%.%.;.-.%.$.%.%.%.%.%.%.-.%.%.%.%.",
"@.%.$.%.$.%.%.-.$.$.%.%.$.%.%.$.%.%.$.%.$.$.$.$.$.$.$.%.%.;.%.%.%.$.$.$.$.$.$.%.%.%.$.%.%.%.%.%.%.%.$.$.$.%.$.%.;.-.%.%.$.%.$.$.",
"$.%.%.%.-.-.$.$.$.%.%.$.$.$.%.%.$.$.-.%.$.%.$.$.%.@.%.-.-.%.$.%.%.$.$.%.$.%.%.%.%.%.$.-.%.$.$.-.-.%.%.%.%.%.-.%.%.%.%.$.%.%.$.%.",
"$.%.$.%.%.$.%.$.%.-.$.%.%.-.%.%.$.-.-.%.$.$.%.-.%.%.%.%.%.%.%.-.%.%.-.%.$.%.-.-.%.-.%.-.%.-.-.%.$.%.%.$.%.%.%.%.%.%.%.%.%.%.%.%.",
"$.%.$.$.$.$.%.-.%.%.%.$.%.$.%.%.-.%.%.%.%.%.%.%.$.$.%.%.$.-.%.%.%.%.$.$.%.-.%.%.%.%.-.%.%.-.%.$.$.%.$.%.%.%.%.%.$.%.%.-.%.-.%.$.",
"%.%.%.%.$.$.$.%.;.%.%.%.%.%.%.%.%.-.%.$.%.$.$.$.$.@.%.%.%.%.$.%.%.%.%.$.-.-.%.-.%.%.%.-.%.$.$.%.$.$.%.%.%.%.%.%.%.%.%.;.%.%.$.$.",
"$.%.$.%.$.$.%.%.%.%.$.%.%.%.$.$.%.%.%.%.$.$.$.%.%.%.$.%.%.%.%.%.-.%.-.%.-.%.-.%.%.%.%.%.$.%.$.%.$.$.%.%.%.%.$.%.%.%.%.$.%.%.%.%.",
"%.%.%.$.$.%.%.$.%.%.%.%.$.$.%.%.%.%.%.%.$.$.%.%.$.$.$.%.%.%.%.%.%.%.-.%.$.$.%.$.%.%.%.$.@.%.$.%.%.%.%.%.%.%.$.%.-.-.%.$.%.;.-.-.",
"$.%.%.%.%.%.@.%.-.%.%.%.$.%.$.$.%.%.%.%.%.%.%.-.%.%.%.%.%.%.%.%.%.$.%.-.$.$.$.$.-.-.%.$.$.%.%.%.%.-.%.%.%.%.%.-.%.-.%.$.$.%.%.-.",
"%.%.%.%.%.%.%.%.%.%.-.-.-.%.%.-.%.$.%.%.%.-.%.%.-.%.%.$.%.%.-.%.%.$.$.$.%.-.$.%.;.%.%.%.-.%.$.-.%.$.%.;.-.%.%.-.%.%.%.$.$.%.%.%.",
"%.$.%.-.%.%.%.%.$.$.-.%.%.$.%.;.%.$.$.-.%.-.%.$.$.%.;.%.-.%.-.#.@.%.%.%.%.%.-.$.%.-.%.%.$.%.$.$.%.%.%.%.%.%.%.%.%.%.%.-.$.%.%.%.",
"%.$.%.%.%.%.%.%.%.%.%.%.%.$.%.%.%.%.;.-.%.%.$.$.-.%.%.%.%.$.%.j f -.%.$.%.-.$.%.%.%.%.$.$.%.%.-.%.%.%.$.$.%.%.%.%.%.%.%.%.%.%.%.",
"%.%.%.%.-.%.%.%.%.%.%.$.%.%.%.%.%.%.$.$.%.-.$.$.%.%.%.%.%.$.@.n e %.$.-.-.%.$.%.-.%.$.$.%.%.-.%.%.%.%.$.%.%.%.%.%.%.%.%.%.%.$.$.",
"%.%.$.;.-.-.$.@.%.%.$.%.$.%.%.$.-.%.$.$.$.%.$.$.$.%.-.%.$.%.d M b +.-.%.%.$.%.$.%.-.-.$.-.$.$.%.%.%.%.%.%.%.%.%.$.$.$.%.%.%.$.%.",
"$.$.%.$.%.$.$.%.%.%.$.$.%.;.%.%.$.%.$.$.%.$.%.%.$.$.$.%.%.-.h A C k ;.$.$.-.-.%.$.$.%.-.$.$.%.-.%.%.%.-.%.%.%.%.%.%.%.$.%.%.%.%.",
"$.$.%.$.%.%.%.%.%.@.$.%.$.%.-.-.%.-.%.$.%.%.%.$.$.$.$.$.-.%.m A A e @.@.&.,.&.%.$.@.%.%.%.%.%.%.%.-.%.$.;.;.-.%.%.%.%.$.%.-.%.%.",
"$.$.%.%.$.-.%.%.%.$.$.%.$.$.%.%.-.%.%.%.%.%.$.%.%.%.-.&.%.g S A V j.N.].iXqX4.3.>.3.$.$.$.%.%.%.$.$.$.%.%.-.%.%.%.-.$.$.%.%.%.%.",
"$.$.-.%.%.%.-.-.%.%.$.$.%.$.$.%.%.%.$.%.%.-.%.-.%.-.-.-.%.< B b 7 s.) .X$Xw.>.@.>.2.+.=.-.%.%.%.%.$.%.%.$.%.%.%.$.;.%.$.$.%.%.%.",
"%.%.%.-.%.%.%.%.%.$.%.%.@.$.$.$.%.%.%.$.-.-.%.$.;.,.=.<.9.t.G.`.(.(.(.y.(.).o.` ` t ] q.} q.8.0.9.1.:.@.$.-.-.%.%.%.%.%.%.$.%.$.",
"$.%.-.$.%.%.$.-.%.%.%.$.$.$.$.$.%.%.-.%.$.%.%.=.v c q 5 & 9 4 & * * * 5 : q 0XX.& 5 & XX| o $ 5 9 o..Xe.$.%.%.$.-.-.%.%.%.$.$.%.",
"$.%.%.%.%.$.$.%.%.$.%.%.%.$.%.%.%.-.-.-.$.;.<.r X                         & .X      X c _.            @X1X$.%.$.%.%.%.%.%.%.$.$.",
"%.$.$.$.%.%.%.%.$.$.%.%.$.$.%.$.$.-.%.%.,.{ $                              .|   X       oXq       X     3X=X$.$.$.$.%.%.%.%.%.$.",
"%.%.%.%.%.$.$.%.$.$.-.%.%.%.-.%.%.%.%.1.c                                 '.9           X.X.  X         0 aX0.$.%.$.-.%.%.%.%.%.",
"%.%.%.%.$.%.$.&.$.$.$.%.;.;.;.;.g =.9.t                                 0  X  X X       t _.  .   .   o   (.wX=.%.-.%.%.$.$.%.$.",
"$.$.%.$.$.%.$.%.%.$.%.d h k p j b.H.:                                   X.y.F U.n.      o >X                ,X&X$.%.$.%.-.@.$.%.",
"%.$.%.$.$.%.%.%.$.%.-.%.k M S T J.R 2 8 F 1 X % 6 7 6 G G P K 8 F 2 1 5 }.N.n.U.T.t 5 0 y 0X[ ` ' | O.X.o.O.>XiXV.f.g.) ) 7.:.$.",
"%.%.$.$.$.$.$.;.;.%.+.z l H Q j.R.M.d.( i.( ( x.I.M.l.x.j.c.Z.c.s.i.u.L.iX3X3X2X3XqXwX<X X2XwXuXuXsXsXsXsX<X%XrX/.A.E.E.E.w.6.@.",
"%.%.-.%.;.;.*.z c H u.s.l.I.n.x.a.p.a.h.n.m.R.R.U.m.c.s.s.p.p.a.z.n.n.J.+X0XuXsXsXsXsX0X%X>X.XsXuXsXuXsXuX#X#XiX-Xm.m.b.n.} 5.$.",
"%.$.-.%.l I ! P / s.l.m.l.h.( ( c.m.U.U.U.Z.n.h.i.i.p.x.m.U.U.U.R.U.A.W.`.4XuX#X`.'.'.'.oX>X X$X'.'.'.'.'.6XsXuX5XY.l./ i.( s.v ",
"$.$.&.k.n.h.E P P J P P K K G h.U.T.T.T.T.b.a.x.n.A.U.U.h.p.d.i.p.n.U.Y.{.*XsXwX0X6X6X0X6XiX X<X6X4X4X4X6XwX0X7XwXD.U.E.E.R.E.b.",
"%.$.S.yX/.~                   G ;X8X8XtX3XXXyXtX8X!.Z.i.h.h.^ a.z.i.c.I.|.+X>X#X$X<X<X$X#X<XoX6XsXuXuXiXwXOX'.[.;XT.i.x.l.j.j.j.",
"%.%.1XpXiX_                   k.wXeXiXpX7XOXiXeXpX:Xm.n.Q       3 c.( Z.L.+XO.` t [ y ` * O.%X4XuXwXwXwX).L.W.a.P Q j.i.z.m.m.z.",
"%.v !.K.K.N.2 @ % % % # % @ G F.K.K.P.P.K.H.~.~.P.J.U.i.      X   F j.d.^.*X,X#X#X X#XoX4X6XoX4XuXwXsX$X}.T.2       @ a.p.I.Z.v.",
"%.f.d./ / ( ( / ~ ~ ( ~ / ~ i.( / / / ~ u.u.~ ~ ^ ~ l.1             d.s.^.1XiXuXsXuXsXuXuXwX XwXwXwXtX].~.U .         % i.W ( j.",
"g B.C.K 2 6 6 6 6 6 6 6 6 6 6 6 6 6 2 s.C.B.Z.M.M.Y.d.    o (.|     E n.~.*XuXwXwXwXwXwXuX4X XsXwXuX6X XJ.#   0 _.'     l.R.R.z.",
"l ..r.u.                            1 c.r.q.E.U.I.U.E     (.sXsX|   E E.|..XuXqXwXwXwXwXwX4X2XwXwXtX4X'.W.    >XsXwXq   8 Q ! x ",
"Y m.a.j.( U E E E E E E E E E E U E s.j.a.s.h.s.n.Q.W   o 6XwXsX`.  W Q.@X2XsXsXsXsXsXsXsXsXsXsXsXsXiX-XT.  9 wXwXsXO.      a >.",
"> U J G J K K K P K K K K K P K P K J G J G G G K Q 2   X <XuXsX_.  6 ! '  .O.O.X.X.X.O.o.o.o.X.O.o.o.o.L   : wXwXsX .  + @.%.&.",
". . .   .                     . . . .   . .           X    .sXiX`                                             .XsX4X&   ; ;.$.%.",
"%.$.&.$.%.-               O $.%.$.$.@.&.%.#.n S k $.o       [ '           o   $ S m @.&.%.&.&.&.%.&.-.a       X  .0     a -.%.%.",
"%.%.%.%.-.s O             a ;.%.$.%.-.%.;.f S N #.f ,                       O p N B d ;.%.%.$.-.-.-.%.;.;             ; -.$.%.%.",
"@.$.%.%.%.-.+.; = + + ; a -.%.%.%.%.%.@.%.e S Z < C S , - + = = u ; + + X , b j n S j -.$.$.-.$.%.$.$.%.%.i = + = = i %.-.%.%.%.",
"%.$.$.%.%.%.$.-.%.%.$.%.;.@.$.@.%.-.$.%.g N B N C B e #.%.%.%.$.;.$.$.;.d m S B N D m @.%.$.%.-.@.-.%.%.%.-.%.%.%.%.;.$.%.-.%.$.",
"%.%.$.%.%.%.$.$.%.%.%.%.$.%.%.%.$.%.%.-.k A B A M k $.-.%.-.%.$.$.%.-.%.%.+.j N S A M d %.$.$.%.$.-.$.$.%.$.%.$.%.%.$.$.-.%.%.%.",
"%.$.$.@.$.-.%.%.%.%.%.%.%.%.$.$.%.%.-.%.w A B w d %.$.$.%.$.%.%.$.$.%.@.%.$.%.f m B B j %.%.-.%.%.%.$.$.-.%.$.%.$.%.%.%.-.%.$.%.",
"%.%.$.$.$.%.%.%.$.%.%.%.$.%.%.$.$.%.-.#.M C h $.%.$.%.%.%.%.$.%.%.$.$.%.;.%.%.;.#.< M m @.$.%.%.%.-.%.$.%.%.%.%.%.%.%.%.%.$.%.$.",
"$.$.%.%.$.$.%.;.-.%.%.$.%.%.%.%.%.%.%.k n d %.$.$.%.%.$.$.$.$.%.%.$.$.$.%.-.%.$.;.;.p n f -.%.%.-.%.%.-.;.%.%.;.%.$.%.$.%.%.%.-.",
"%.%.%.$.%.%.%.-.%.%.%.%.%.%.-.%.%.%.$.p #.;.$.$.%.$.%.%.$.$.$.%.$.$.$.%.$.$.%.%.%.%.-.d f -.%.%.%.$.%.%.%.%.%.%.$.%.;.-.%.%.%.-.",
"%.$.$.$.%.%.-.%.-.%.%.%.-.-.%.-.%.%.$.%.-.$.$.%.%.$.$.%.%.%.%.%.$.%.%.%.$.$.%.%.%.$.%.-.%.$.%.$.%.%.%.$.$.$.%.%.%.-.%.%.%.$.$.%.",
"%.$.%.-.-.%.%.%.;.%.$.%.$.$.%.%.$.%.%.$.$.$.-.%.%.-.%.%.-.$.%.%.%.%.%.%.$.$.%.$.$.-.-.$.$.%.%.%.%.%.$.$.$.$.%.-.$.$.%.$.$.$.%.%.",
"%.%.$.%.$.$.$.%.%.$.%.%.$.%.%.%.$.%.;.%.%.%.$.%.$.%.%.%.%.%.-.%.%.-.%.$.$.-.$.%.%.%.%.%.%.-.%.%.%.$.%.%.$.%.%.%.%.$.%.%.%.%.$.%.",
"$.%.%.$.$.$.%.-.%.$.-.$.%.%.-.%.$.%.$.%.$.$.$.$.%.%.$.%.%.%.%.$.%.%.$.%.%.%.%.%.%.$.%.%.%.%.%.%.$.%.$.$.$.$.%.%.$.%.%.;.%.$.%.%.",
";.%.%.$.$.$.%.$.$.%.%.%.%.-.%.$.%.%.%.%.%.$.%.%.-.-.%.-.%.-.%.$.$.%.-.%.$.%.-.%.$.%.$.$.%.%.%.%.%.%.$.%.%.%.-.%.%.%.%.;.-.%.%.$.",
"%.%.%.$.%.-.$.$.%.;.%.%.%.%.%.-.%.%.-.$.$.%.$.%.-.%.%.$.%.%.%.%.-.%.%.$.$.%.%.%.$.$.%.$.%.%.%.$.%.%.%.%.%.-.%.%.%.-.%.;.-.$.%.$.",
"%.%.$.%.%.-.%.%.%.%.%.%.%.%.$.;.-.%.$.%.%.%.%.%.%.@.$.%.%.%.%.%.%.$.$.$.%.%.%.%.%.%.$.$.$.%.%.%.%.-.-.$.-.%.$.%.%.%.%.%.%.$.$.%.",
"%.%.%.%.%.$.%.$.%.%.%.%.%.%.%.-.%.$.$.%.%.%.%.%.%.%.;.%.$.%.%.%.$.$.$.-.%.%.$.$.-.$.%.$.%.%.-.-.%.%.$.%.%.$.$.$.%.%.$.%.%.%.%.%.",
"%.%.%.%.$.$.$.$.%.%.%.-.%.%.-.%.$.%.%.%.%.$.$.$.%.%.%.%.%.%.%.%.$.%.-.$.$.%.%.%.%.$.%.%.%.%.$.%.-.%.%.%.%.%.$.$.%.-.%.%.%.$.%.-.",
"-.%.%.$.%.%.%.%.%.%.-.$.$.%.%.%.%.$.%.%.%.%.%.%.%.%.%.$.%.%.%.%.%.$.%.%.$.$.$.%.%.%.%.%.%.%.$.$.%.%.@.%.$.%.%.$.$.%.%.-.%.%.-.%.",
"%.%.%.%.$.@.-.%.%.;.%.$.%.%.$.$.%.-.%.%.%.$.$.%.%.%.$.%.%.%.%.-.%.$.%.%.$.$.%.%.%.$.$.%.$.%.$.$.%.$.%.%.%.%.$.@.$.$.$.-.%.$.%.%.",
"%.%.%.$.$.$.%.%.%.%.%.%.$.$.$.%.%.%.%.%.%.%.%.$.%.%.%.-.%.-.;.%.%.%.%.%.@.%.%.%.$.$.%.$.$.%.%.$.%.%.$.%.%.$.%.$.%.$.-.%.%.$.$.%.",
"-.%.$.$.%.$.$.%.-.%.%.%.$.$.$.$.-.%.$.-.$.%.%.$.%.$.$.$.$.%.%.-.%.%.$.$.%.%.%.$.$.$.%.%.%.%.$.$.%.$.$.%.%.%.%.$.$.%.-.%.%.%.%.;."
};
