/* XPM */
static char *bb3438e74b184324cc2782bb18af8546TvAJskof7lCZqA9V[] = {
/* columns rows colors chars-per-pixel */
"64 64 232 2 ",
"   c #02380A",
".  c #19391B",
"X  c #362C18",
"o  c #283418",
"O  c #3A321D",
"+  c #273C21",
"@  c #333921",
"#  c #571A0E",
"$  c #760C0A",
"%  c #7D0B0A",
"&  c #6B110D",
"*  c #74120D",
"=  c #691912",
"-  c #7A171B",
";  c #432B1A",
":  c #4B2919",
">  c #542315",
",  c #5A2417",
"<  c #59332D",
"1  c #58363B",
"2  c #692727",
"3  c #722926",
"4  c #713423",
"5  c #622C33",
"6  c #084403",
"7  c #004C1C",
"8  c #125010",
"9  c #094624",
"0  c #174626",
"q  c #134D29",
"w  c #005823",
"e  c #04542B",
"r  c #0B532B",
"t  c #005C2D",
"y  c #1E562F",
"u  c #075D32",
"i  c #244224",
"p  c #215731",
"a  c #325331",
"s  c #00612E",
"d  c #016431",
"f  c #006932",
"g  c #3A723D",
"h  c #4B5333",
"j  c #595A38",
"k  c #7A422E",
"l  c #6B4B36",
"z  c #675C3A",
"x  c #7C5739",
"c  c #7E5C3D",
"v  c #62603C",
"b  c #503A42",
"n  c #3B4C56",
"m  c #354F5A",
"M  c #2E525F",
"N  c #34515C",
"B  c #157546",
"V  c #2A6F48",
"C  c #48424A",
"Z  c #514E4D",
"A  c #474D51",
"S  c #465355",
"D  c #7F5F40",
"F  c #6E6C47",
"G  c #870707",
"H  c #8E0102",
"J  c #950001",
"K  c #9B0001",
"L  c #970B08",
"P  c #9C0C0B",
"I  c #93130E",
"U  c #9A120D",
"Y  c #871914",
"T  c #971813",
"R  c #A20001",
"E  c #A60506",
"W  c #A31514",
"Q  c #A21B1B",
"!  c #A91919",
"~  c #8D261A",
"^  c #962016",
"/  c #922318",
"(  c #902B1E",
")  c #A8220C",
"_  c #B22217",
"`  c #8D2E20",
"'  c #982F26",
"]  c #8A3626",
"[  c #8C3625",
"{  c #8B3D2A",
"}  c #943627",
"|  c #A42523",
" . c #AA2725",
".. c #AD352E",
"X. c #AC3432",
"o. c #AA3E39",
"O. c #B33B37",
"+. c #C81A0D",
"@. c #DA362B",
"#. c #87412C",
"$. c #8A432E",
"%. c #874A32",
"&. c #8A4B34",
"*. c #97463C",
"=. c #865237",
"-. c #855439",
";. c #845C3F",
":. c #885B3F",
">. c #A7423D",
",. c #B5473E",
"<. c #F4591E",
"1. c #C94031",
"2. c #F45E24",
"3. c #EC443E",
"4. c #F4622A",
"5. c #F26933",
"6. c #845E41",
"7. c #8A5D41",
"8. c #96564C",
"9. c #AF4A47",
"0. c #B64B47",
"q. c #B35049",
"w. c #B95955",
"e. c #836142",
"r. c #8B674A",
"t. c #8C6D54",
"y. c #916D51",
"u. c #88735A",
"i. c #9B755A",
"p. c #AE6357",
"a. c #947562",
"s. c #BC6A64",
"d. c #A87468",
"f. c #B8746E",
"g. c #FE504E",
"h. c #C2645B",
"j. c #F17544",
"k. c #FC635F",
"l. c #C16D67",
"z. c #C2726C",
"x. c #C87969",
"c. c #C27871",
"v. c #F26A64",
"b. c #F3756F",
"n. c #518B5A",
"m. c #65875B",
"M. c #53926B",
"N. c #6D906B",
"B. c #7AA77F",
"V. c #9B826A",
"C. c #988F7E",
"Z. c #859E7B",
"A. c #AE8D71",
"S. c #BB8578",
"D. c #EF8558",
"F. c #F08458",
"G. c #CA867D",
"H. c #EF8E64",
"J. c #EE966E",
"K. c #F5827C",
"L. c #ED9C77",
"P. c #EDA17D",
"I. c #78A880",
"U. c #9C9889",
"Y. c #AC9487",
"T. c #8AA586",
"R. c #97A887",
"E. c #8BAE93",
"W. c #8CB791",
"Q. c #B9AD9D",
"!. c #A8B495",
"~. c #B2B7A2",
"^. c #C88B83",
"/. c #CE958D",
"(. c #D39889",
"). c #CC9890",
"_. c #D39992",
"`. c #F38E87",
"'. c #D0A692",
"]. c #D3A49A",
"[. c #EDA785",
"{. c #ECAB8B",
"}. c #E9B59A",
"|. c #D8ACA3",
" X c #C6B6AB",
".X c #CCB7A8",
"XX c #D4B3AA",
"oX c #D8B6A8",
"OX c #DBBDB2",
"+X c #F0B5AC",
"@X c #B3C6AF",
"#X c #B9C8B4",
"$X c #CDC8AE",
"%X c #DCC3B8",
"&X c #D4D2BA",
"*X c #E7C6AD",
"=X c #E5CAB8",
"-X c #F0C1B6",
";X c #E8D1B5",
":X c #EDD6BA",
">X c #EDD9BC",
",X c #F1D9BD",
"<X c #DBCEC1",
"1X c #CBD5C0",
"2X c #D6D6C8",
"3X c #DBDCD0",
"4X c #E4CDC1",
"5X c #E5D7C3",
"6X c #E4D5C9",
"7X c #E4DACD",
"8X c #E8DDCE",
"9X c #F3DEC1",
"0X c #E6DED2",
"qX c #EBDED3",
"wX c #DFE0D1",
"eX c #F7E6C9",
"rX c #E6E2D5",
"tX c #E8E3D6",
"yX c #E4E5D9",
"uX c #E9E6D9",
"iX c #E6EADE",
"pX c #EAEADD",
"aX c #F1E8DD",
"sX c #E6EDE1",
"dX c #EAEDE1",
"fX c #F2EDE3",
"gX c #F8EDE2",
"hX c #EDF1E4",
"jX c #EBF6E8",
"kX c #EEF5E9",
"lX c #F7F2EA",
"zX c #FDFCF7",
/* pixels */
"R K J J K K K J J J J s.6XtXlXZ.~.zXrXuXoX| K K J K K K I =.;.;.;.;.;.;.;.e.[ R J J K K K J K K K J R K K K J K K J K R K K K J ",
"K K K K J K J K R H s.kXhXpXN.  8 R.aXsXkX=X! R R L K K &.e.;.;.;.;.;.;.e.e.&.L J K J K K H J J K K K J K R J J K R E R J J J K ",
"K J K J J K K E J X.iX4X+XR.g m.N.n.%Xv.+XjX/.J K K R $.e.;.;.;.;.;.;.;.-.x ;.I K R K H J K J K K R K K K K K J K K J K K J K K ",
"K K K K R K J K J z.jX5Xk.) ].W.!.b.3.`.rXiX%XW J K L -.e.;.;.y.r.e.e.r.i.A.$.J K K K K K J J K R R K K K J K K J J H R R K J K ",
"K J K J K K R E J z.jXtXhXi._ 1.@.`.8XhXuXuX7X .J J J =.e.x y.;X;X;X*X*X,X9X,.J J J J J K J K K J K K K J K J J R K K K K K K H ",
"K J K K J K K R K x.jXyXkX'.) +.+.{.hXiXqXiX4XW K K K #.r.;.A.9X:X:X>X,X:X:Xo.J J J K J J R J J K J J J J R K K J H R R K J K J ",
"K K K K K R K L J z.jX;Xb.g.-XZ.F ) g.+XsXuX6Xq.K R K ( .XA.A.,X:X:X:X;X9X(.K J R K J J K R R K K K R K K K R K K K J K K J K J ",
"J K R K K K K J K q.sXv.K.&X#XZ.B.7 r.g.v.pXpXhX]...R U *X;X;X9X:X:X,X;XeX(.J J K K K K K K R K K K J K J K K K K K J J K J J J ",
"J J K R R K K K K K |.dXkX~.8 6     @XaX-X'.X.q.z.z. .R ,.}.9X:X:X:X:X>XeXh.H J J J J K K J R K K R K K K K K R R J J J K K K J ",
"K K K K K K K K J J Q OXhXpXrXm.m.&XlXrX^.R J K K K K K J O.:X,X:X:X:X:Xx.J J K K L H K K K R K J J K J K J K R K K K J J K K J ",
"R R R K K K R R K J K P s.%XrX8XqX4Xc.' H K K R K J K J R _.qX-X>X>X,X*X .T | | W K J J K K K K K J K J K K K K J J K J J K K K ",
"R R K J J K K K R K L K J R W ! T K K J J K E K L ^.XXOX%XfXzXaXJ.P.gXlX0X0X0XqX7Xw.J K K K K K J J J K K K K R J J K K K K K K ",
"K K K K K K K K R K K R E K K K R J L R R K K R ).kXdXpXdXtXlXlXD.H.fXdXtXiXiXtXpXpXx.K K K J K R K K R R R K K K K K K K R K K ",
"K K K J R K K K K K K K K K K K J J K J K K R ^.hXqXtXtXtXtXuXkX}.}.dXtXtXtXtXtXtXuXdX).E J L K R R J K K R K H K K K K K K J K ",
"K J K K K K K K K K K J J K K K R K K J J J c.hXrXtXuXuXtXtXtXsX}.L.dXtXtXtXuXuX0XrXrXhXOX .K K K K J K K K K K K K K R K K J K ",
"J J K K K K K K K K K K J K K K K R K R J s.dXtXtXrXtXtXtXtXtXdX{.H.pXuXtXtXuX0XyXpXrXrXdX7X0.J K K K K J K K K R K K K K K K K ",
"K J K K K J K J K K K K K K K K K J K K q.uXuXtXtXiXyXtXuXtXtXsX{.F.uXtXtXtXuX0Xs.%XhXtXqXiXpXh.J K K K J J J K J J R E R K J J ",
"K K R K J K K K K K K K R K J K R K H o.tXiXtXtXhX].5XpXtXtXtXsX{.5.qXuXtXtXuX8X! W XXdXrXrXtXpXl.J R K J J K K K J J K K J J K ",
"K K R K J K K K K R R R J K R J R K O.7XpXtXqXhX).K ].dXtXtXtXsX{.5.4XpXuXtXpX6X| J P /.hXuXtXtXdX/.P J K J J K K K K K J J J K ",
"K K K K K J K K K R R K K K J K K o.0XpXtXrXdX].R J z.hXrXtXtXdX{.2.*XsXtXtXuX6XQ J K K s.rXtXrXtXhX>.J K K J K K K K K K K J J ",
"K K K J J K R K K K K K K K J K | 6XpXrXrXdX|.R R H q.pXtXtXqXsX[.2.}.dXtXtXpX6XQ K K K J G.iXtXtXuXo.J H J K R R K K K K R J J ",
"K J J K J K K K K R R K J K R J ^.kXrXrXdXoXW K P J 9.yXtXtXtXsX[.<.[.sXtXtXuX6XW K E R K Q <XiXtXtXX.H K K J K R K K K R K K K ",
"K J J K K K R R J K R K K J J K OXpXrXyXOXW K K K J O.uXuXtXtXsX[.<.J.iXtXtXpX6XT J K K K ! 7XtXuXrX .J J K K K K K K K J K K J ",
"J J R K K K K K J J K R R L J X.rXtXrXhXw.J K K K J  .7XiXtXtXpXL.2.F.tXtXtXuX8X .K K L R ,.pXrXuX7XQ K K J J K K J K K K K K J ",
"J J K K K K K J H K R K K R J w.dXrXtXpXOXQ K R K J J .XdXtXtXsXL.2.j.qXuXqXiXqXX.J R K J s.hXrXdX=XL J K R J J K K K K J J K K ",
"K K K K K R K J K K K K J R K  .7XpXrXtXhX%XW K L K H f.sXtXtXpXL.2.5.:XuXtXtXsXw.J R R R ^.hXrXsXoXK K K R J H K J J K K K K J ",
"J K J K K K K K K K K J E R R K w.aXrXtXrXdXoXP K E K f.iXrXtXsXJ.2.5.*XsXtXqXhX^.K K R E |.pXrXdX(.R R K J J J J J K K K K K K ",
"K J J K K K R R K J J G , , , > # C.fXtXtXtXhX.X2 , > ~.fXrXtXpXJ.4.4.}.sXtXtXdX.X, > , > Q.fXrXfXa.# > $ J K K J J K J J K J J ",
"J J K R K R K K K K K J > r f t e w E.fXrXtXrXfXM.t u #XaXuXtXiXJ.2.5.*XpXtXtXpX3XB t d 7 T.tXuX~.u e ; H K K K R K K J J K J K ",
"K J J K K K K J R R R R K % @ t s t e U.dXrX0XpXT.. q E.gXrXtXuX8XL.[.sXqXtXrXaX2Xa i + N.&X5X&XV 0 = K K J K K K J J K J J K K ",
"J K K K K J J K R K K K J K H : e t e X S.lXiXwX=X>.. V 2XfXuXtXpXfXdXuXpXpXpXtXo.H H q.eX:XeXZ.X L E J J K K K K K K R K R K R ",
"K J R K J K K K K K K K K J J R $ i t t + 8.].5X9X9XV 7 l .XrXyX3X XQ.&X7X8X<Xa.y.G.s.oXm.Z.eXS.K R K K J J K R K K K J R K J K ",
"J R K K J J K K J K J J J R R J J H ; e f   V.eX(.S.!.V d.y.y.V.u.6.x 6.r.r.6.x t.rXzX1XI.$X9X'.R E R K K K K K J R R J K K J K ",
"K K J J K K K J K K R K K R R K K K R = i d ~.eX'.u.1XlX$X;.:.=.-.6.c ;.-.;.6.6.-.V.M.p p.(.;XG.K K K K J K J K J K K K K K R K ",
"K K K K K K R K J J J K R R K K K R J K L O Z.,X$XZ.p Y.i.x e.e.6.6.c e.6.6.6.:.7.z o $ H J G...J K K J K J J J J K J K K K K K ",
"K K K J J J J R J K J K R K K K J K K J R H 8.!.s t 9 4 ;.6.;.;.6.6.T Y =.6.;.;.;.e.( K K K  .L J K K K K J J K R K K R R R K J ",
"K K K K K J K R K K K J J J K K J J K K L K E *.0 d t z e.:.;.;.e.[ K & l 7.;.6.;.e.&.J J J J R K J K K K J K R K R K J K K K J ",
"J K K K K K K J K R K J J K K K K K K R J J R % q e y c ;.6.;.6.:.Y > r d z 6.;.7.;.e./ J J K R K J J K R K K K J J J K K K K J ",
"K K R K J K K J K K K K K K K K R R R K R J R : d 9 4 6.;.;.;.7.k + t s 0 4 7.;.;.;.e.$.K K K R R K K K K R K J J J K K K K K K ",
"K K K J J K K R K J K R K K K K K R R J R K J i d O } 6.;.;.6.;.a s e O J K %.e.;.;.;.;.I K K J K K K K K K K K K K K K K K E R ",
"J J J K K K K K R K K R K K J J K K K J K R % t s = &.e.;.;.e.j t t ; R K K Y c ;.;.7.e.[ K K K J J J K K K R K K K J J K R K R ",
"K K R R K R K J K R R K K K K K R R J J K R : d 0 / ;.6.;.;.c y e t q > K R H l e.;.;.e.=.L K K K J J J R J J K K J J J K R R K ",
"K K K K K R J J J K K J K K R R J K K K R J 0 d ; ' e.;.;.e.j > = q d t @ G E , c :.;.;.e./ K K R K K J J K J J K K K J K K R R ",
"R K J K R K K J K K K K K K K R K J K K K * t t = &.e.;.6.;.~ K R G @ t d q = G h e.;.;.e.$.K J K R K K J K K K K R J K K J K K ",
"K R K K K K K K K J J K K K K J K R K J R : f q < c e.;.e.#.J K R K K , q s t O 0 v 7.;.e.;.I K K K K K J J K J J J K K K K J H ",
"J K R K K K K K K K K J K K K J K K J K J q f e h 7.e.;.;.I J K K K K R % @ t s t p c ;.;.e.{ K J J H K K J K K J J R K K J K K ",
"K K K R K J J K J K K K J J R J K K J K * e s d z 7.;.e.[ E J J J K R K R J > r s s j 7.;.e.&.J J K K J K J K K J J K K K J K K ",
"J K J R K K K K K J K R J J K K K K K K ; t t a ;.;.;.;./ K K J K K J K J J K * + t z 7.;.e.=.K K K K K K K R K K K K J H K J J ",
"J K K K K K K K K R R K K K K K K K J J 0 t ; ` e.;.;.e.~ J K K K J J K K K K K J ; j 7.;.6.=.J K K K J K K K K K K K J K J K K ",
"R K K J K K J K R K K R R K K R K K R = 9 = E ^ D ;.;.e.] J J J K J K K J K K J J L -.6.;.e.#.K K K K J J K K R R K J J K J J J ",
"R K K K R R K K K K K K K K J K K J K = $ R K P =.6.;.6.=.L J J K J J J K K J K J / e.;.;.e.[ R R R K K K K K R R K K K J K K K ",
"K J J K K K R K K K K J J K K K K K K J R K J K [ e.;.;.e.( R J K K K J K J J K K ] e.;.;.6.T K K K K R K K R K K K R K J J K J ",
"J K K K J J J J R J J K J J K K K K K J J K R K T 6.;.;.e.%.K K K K J R K J R R K =.6.;.6.;.L K K K J J K J K R K K J R K K K K ",
"K J K K R K J K K K K J K K J K K K R K K K K K J %.6.;.;.:.U K K K K R K K K J I ;.6.;.6.=.K J K K K J K K K K K J J K K J K K ",
"K K J K R R K J K K K J J J J J K K K K K K J K K ` e.;.;.e.( K J K K K K K K K ~ e.;.:.e.#.K J K R K K J R J K R K J J J K R J ",
"J K K R R K K K K R K K K J K K K K K K J J J J R U :.;.;.e.$.J K K R J R K K R ( e.;.;.6.[ R K K K R K K K K J J K J J K K K R ",
"J K K K R K K R K K R R K K K K J K K K J K J J K K { e.;.6.:.P K K K J J K K K { e.6.6.6.^ K K R K K K K K R K J J R K J K K K ",
"K J J K K R K K K J K K J R K K K K K J J K R K K K / e.;.;.;./ K K K K K K J K { e.6.6.6.I K R R K K K K R R K K K R K J J K K ",
"K K K K K K K K J J J K K J K R R R K J J K K K J J L :.6.;.e.[ K K K J K R K K $.e.6.6.-.L J K R K J K K K K K J K J K K K K K ",
"R K J K K K K K J K K K K K K R R J J K K K J K K K K %.e.:.e.&.K K K K K K K K $.6.6.6.%.K K J K R K K R K K K J J J J K R K K ",
"K R K K R K K J J K K J K H K K J J J K K K K K K J K ( e.;.D -.L K R J J J K K $.6.7.e.{ K K K K K J K J R R K K K J K K K K R ",
"K K K K R J J J H J K K K K J K J J K K K J J K R K % 1 A A n 1 R K K K K K K R 3 S Z A C 2 J R K J K K K K R K K K J J K K K K ",
"R J J K R R J K J K K J J K K K J K K J J K K J - 1 N N m N N C K R R K R K K K 1 M m m n N C 3 J J J J K K K K K K J J J K J K ",
"R R K K K K K H K K K J K J J K K J K K K K J 5 m N n A b 5 C 5 R K K J J K J K - b 1 1 A n N N b H J J K R K K K K K J J J K R "
};
