/* XPM */
static char *ce1c926479d24031fb411875ea99a946NskpRz4STO5rK0Yu[] = {
/* columns rows colors chars-per-pixel */
"64 64 222 2 ",
"   c #010001",
".  c #090000",
"X  c #010A0B",
"o  c #0A0B0B",
"O  c #120101",
"+  c #1D0101",
"@  c #010C12",
"#  c #000E1B",
"$  c #0B1713",
"%  c #00121B",
"&  c #151818",
"*  c #1B1B1B",
"=  c #240202",
"-  c #2B0103",
";  c #370000",
":  c #211E1D",
">  c #3A121B",
",  c #0A2F18",
"<  c #382B18",
"1  c #001524",
"2  c #021C2B",
"3  c #001E35",
"4  c #1B2324",
"5  c #012234",
"6  c #002838",
"7  c #03293F",
"8  c #252423",
"9  c #292727",
"0  c #2A292A",
"q  c #2A3D22",
"w  c #313A20",
"e  c #312F32",
"r  c #343737",
"t  c gray24",
"y  c #420000",
"u  c #540000",
"i  c #5D1A0E",
"p  c #6C0101",
"a  c #770706",
"s  c #75120D",
"d  c #661A13",
"f  c #771114",
"g  c #4D2719",
"h  c #442C1B",
"j  c #562316",
"k  c #531E33",
"l  c #621826",
"z  c #761D2D",
"x  c #4C2E36",
"c  c #712935",
"v  c #0A4C27",
"b  c #144929",
"n  c #194828",
"m  c #05552C",
"M  c #08572B",
"N  c #015D2D",
"B  c #034C31",
"V  c #015E31",
"C  c #00622E",
"Z  c #006431",
"A  c #006932",
"S  c #002C4A",
"D  c #01324D",
"F  c #19354D",
"G  c #013553",
"H  c #013856",
"J  c #0A3A54",
"K  c #023B5B",
"L  c #2D3754",
"P  c #013D61",
"I  c #6A2A41",
"U  c #00584F",
"Y  c #2A4B5D",
"T  c #024163",
"R  c #02456A",
"E  c #04486C",
"W  c #12476D",
"Q  c #014B76",
"!  c #054974",
"~  c #024D7A",
"^  c #02517D",
"/  c #2D5175",
"(  c #386178",
")  c #444343",
"_  c #49494A",
"`  c #514F4F",
"'  c #5B5A5A",
"]  c #744F4F",
"[  c #6E5B61",
"{  c #5F6162",
"}  c #656767",
"|  c #6C6B6B",
" . c #7B666C",
".. c #747676",
"X. c #747878",
"o. c #7A7A7A",
"O. c #850304",
"+. c #8D0102",
"@. c #84090A",
"#. c #950001",
"$. c #9B0001",
"%. c #96070A",
"&. c #8B0D16",
"*. c #9A1113",
"=. c #A20001",
"-. c #AA0001",
";. c #A50D0B",
":. c #B60101",
">. c #A81314",
",. c #982D2E",
"<. c #AC3A3B",
"1. c #C50101",
"2. c #E50000",
"3. c #F52D2D",
"4. c #DD461D",
"5. c #E54820",
"6. c #833C40",
"7. c #8B4A4B",
"8. c #9E4C4E",
"9. c #A55556",
"0. c #856768",
"q. c #907477",
"w. c #BF7576",
"e. c #E96846",
"r. c #748879",
"t. c #87807C",
"y. c #004D82",
"u. c #035583",
"i. c #025887",
"p. c #095887",
"a. c #035B8C",
"s. c #035D93",
"d. c #125B91",
"f. c #205E8E",
"g. c #036398",
"h. c #03659A",
"j. c #33688E",
"k. c #036BA3",
"l. c #096CA6",
"z. c #046EA9",
"x. c #0471AE",
"c. c #0970AA",
"v. c #0B71AB",
"b. c #0374B3",
"n. c #037ABB",
"m. c #0779B8",
"M. c #2476A5",
"N. c #416F93",
"B. c #5C7991",
"V. c #717080",
"C. c #027DC2",
"Z. c #007DC8",
"A. c #B27D80",
"S. c #0D80BF",
"D. c #308ABB",
"F. c #7CA591",
"G. c #4783A5",
"H. c #458DB6",
"J. c #5D9ABB",
"K. c #7599AE",
"L. c #609DBE",
"P. c #0581C5",
"I. c #0484CA",
"U. c #0D85C8",
"Y. c #1486C5",
"T. c #0589D2",
"R. c #0288D4",
"E. c #268EC8",
"W. c #0B99E8",
"Q. c #4E99C1",
"!. c #66A4C6",
"~. c #6CB0D6",
"^. c #868585",
"/. c #928C8A",
"(. c #939394",
"). c #939797",
"_. c #9D9D9D",
"`. c #A69A97",
"'. c #8699A3",
"]. c #949DA2",
"[. c #9AA5AB",
"{. c #88A4B3",
"}. c #A4A3A3",
"|. c #ACA5A3",
" X c #A5AAAC",
".X c #AAAAAA",
"XX c #B1ABA7",
"oX c #B7B1AD",
"OX c #A5B2B6",
"+X c #B5B5B5",
"@X c #B6B9B9",
"#X c #BCBDBD",
"$X c #C89D9E",
"%X c #C1B9B5",
"&X c #D7B7B7",
"*X c #80B3D2",
"=X c #ABBFCB",
"-X c #9BC1D7",
";X c #B9C6CD",
":X c #C4C4C5",
">X c #C4C9CA",
",X c #CBCBCB",
"<X c #DCCAC4",
"1X c #CCCFD1",
"2X c #C8D4D8",
"3X c #D5D5D4",
"4X c #D0D8DC",
"5X c #DCDCDC",
"6X c #E5DDD9",
"7X c #DFECF4",
"8X c #E3E3E3",
"9X c #EAE7E8",
"0X c #ECECEC",
"qX c #F5EEEB",
"wX c #FBF2EE",
"eX c #EAEEF1",
"rX c #EBF3F5",
"tX c #F4F4F5",
"yX c #FCF6F3",
"uX c #FFFBF5",
"iX c #F2FDFD",
"pX c #FDFDFD",
/* pixels */
"-.$.#.#.$.$.$.#.$.#.#.=.$.$.$.$.$.$.#.$.$.$.$.$.#.$.$.#.#.$.$.$.+.$.-.$.$.=.=.-.#.#.$.$.$.#.#.=.#.$.$.$.$.$.#.$.$.#.$.$.#.$.$.#.",
"#.$.$.#.#.$.#.$.$.#.#.-.$.$.$.$.$.$.$.=.$.=.$.-.=.$.$.=.-.$.=.$.$.=.$.=.=.$.$.#.#.$.#.$.$.+.#.#.$.$.$.#.$.=.#.#.$.=.-.-.#.#.#.$.",
"$.$.$.#.#.$.$.-.#.$.$.=.=.$.$.$.$.$.$.$.-.-.#.$.$.$.=.=.=.#.$.-.-.=.$.$.$.#.#.#.$.=.$.+.#.$.#.$.$.=.$.$.$.$.$.#.$.$.#.$.$.#.$.$.",
"$.$.$.$.$.$.#.$.#.$.$.#.$.=.=.$.$.-.-.$.#.=.=.$.#.#.$.$.#.#.#.$.$.#.$.$.#.$.$.$.$.$.$.$.#.#.$.$.$.=.=.$.$.#.$.$.#.#.+.=.=.$.#.$.",
"$.#.$.#.$.$.=.=.$.#.$.$.#.#.$.$.$.$.$.$.$.#.$.$.$.#.#.#.#.#.$.$.$.$.-.$.$.#.#.#.#.#.#.#.$.#.=.$.#.$.=.#.$.$.#.#.=.$.#.$.$.#.$.#.",
"$.#.$.$.#.$.$.$.=.$.$.$.$.#.$.=.$.#.#.$.=.#.$.$.$.$.$.#.#.#.#.$.$.#.$.=.-.$.+.#.#.#.$.#.$.=.+.#.$.#.#.#.#.$.$.$.#.#.=.=.$.#.$.#.",
"$.$.$.$.$.=.$.$.$.$.$.$.$.$.$.$.$.-.$.$.=.$.=.$.=.=.$.#.$.=.$.#.$.=.$.$.$.$.$.$.=.$.#.#.$.$.=.#.$.$.=.$.$.#.=.$.#.$.$.$.$.#.#.#.",
"#.$.$.$.$.$.$.#.$.$.$.$.#.#.$.#.#.$.-.$.$.=.$.$.$.$.=.$.#.$.$.$.$.$.=.#.$.$.#.#.$.$.$.$.$.$.=.=.$.$.#.$.$.$.$.$.=.$.+.#.$.#.#.$.",
"#.#.$.$.-.$.$.$.$.$.$.$.=.$.#.#.$.#.#.$.$.$.$.$.=.$.=.=.$.#.=.$.$.#.$.$.$.$.+.#.$.#.#.$.#.#.=.$.$.=.$.$.$.$.$.=.$.#.#.#.$.$.$.#.",
"=.$.$.$.#.$.$.$.#.$.$.$.$.$.#.#.$.#.#.$.$.=.$.$.$.$.$.$.$.=.$.$.$.$.$.$.$.#.#.$.$.#.#.$.$.$.$.$.#.#.$.#.$.#.$.$.$.$.$.#.#.$.$.#.",
"=.=.=.$.$.$.$.=.$.#.$.$.$.$.$.$.$.#.#.+.+.$.=.$.$.$.#.#.$.=.$.$.$.$.$.$.$.#.#.$.$.$.#.#.$.$.$.$.$.#.$.#.$.$.$.=.#.#.$.#.#.#.$.$.",
"=.$.$.#.#.$.=.$.=.$.$.$.$.$.=.$.$.$.$.$.#.$.-.$.#.#.$.#.$.$.#.$.$.$.=.$.$.#.$.$.$.$.$.#.$.$.$.$.#.#.#.$.$.$.$.=.#.#.$.$.$.$.$.$.",
"$.$.$.$.$.$.#.$.=.$.$.$.=.$.$.$.=.$.$.$.$.$.$.=.$.#.$.$.%.$.#.$.=.$.=.$.#.$.#.=.$.$.=.$.$.$.#.$.=.$.$.=.=.=.=.$.$.$.$.$.=.$.$.$.",
"$.$.$.#.=.=.$.$.$.=.$.$.$.$.#.$.#.#.#.#.$.$.-.$.$.$.$.$.=.$.$.+.@.=.$.$.$.=.=.#.$.=.$.$.$.$.$.$.-.$.#.$.$.$.#.+.$.$.$.$.$.$.#.$.",
"$.#.$.=.$.$.$.$.$.$.$.#.#.$.$.$.=.$.$.#.#.$.$.$.$.$.$.$.#.$.=.d h #.$.$.$.$.$.$.#.#.$.$.=.-.#.#.$.$.#.$.$.$.$.$.$.$.$.=.$.$.$.$.",
"#.#.$.$.#.$.$.$.$.$.$.$.#.$.=.$.$.=.$.=.#.#.$.$.$.#.$.-.$.#.=.w n +.#.$.=.=.$.$.#.+.=.$.$.#.=.$.$.$.$.$.$.$.$.$.$.$.$.$.$.$.$.$.",
"$.#.$.$.$.#.$.#.$.$.$.$.$.=.$.$.$.#.#.$.$.$.=.$.$.$.#.#.$.=.O.v m s $.#.$.=.#.#.#.$.$.#.#.#.$.=.#.$.$.$.#.#.$.$.#.#.=.-.=.#.$.#.",
"$.$.$.$.#.$.$.$.$.$.$.$.$.$.#.$.-.$.#.#.$.$.#.$.$.-.=.#.#.-.j N C h =.=.$.#.#.#.$.$.+.$.#.$.$.#.$.$.=.$.#.#.$.$.$.#.#.$.#.$.#.#.",
"$.#.=.=.#.$.$.$.$.=.-.=.#.$.=.$.$.$.$.$.$.#.+.#.$.%.;.%.O.+.w C C n $.$.#.#.#.$.#.#.$.$.#.$.=.$.$.-.$.#.$.#.#.$.$.$.#.$.#.#.$.#.",
"$.$.$.$.#.#.$.$.$.$.=.$.$.$.#.%.$.$.$.$.#.$.2.:.2.3.9XpX`.M.h.B C V f $.#.$.=.$.$.$.$.$.$.$.$.=.$.$.#.#.#.$.#.$.$.$.=.#.$.$.#.#.",
"$.$.$.#.#.$.=.$.=.$.$.$.$.$.#.$.$.$.$.=.%.@.1.:.+.:.q.@XXXY s.6 v N < $.-.=.$.$.=.$.=.$.$.#.$.$.$.#.#.$.+.#.$.=.$.=.$.$.$.=.#.#.",
"#.$.#.#.$.$.$.$.$.=.=.#.+.;.<.8.9.7.0.[ 0.` r ) ) ../.^.^.^.^.^.).F.r.8.,.*.>.-.#.#.=.=.#.$.$.$.#.#.$.+.$.$.#.$.=.$.$.$.=.$.$.$.",
"$.$.#.$.#.$.=.=.#.#.$.$.w.|...4 4 $ $ }  X& 8 & ..5X0 : * * * * * : : & : e x c *.$.$.#.$.=.=.$.#.#.#.#.#.$.#.$.$.$.$.$.#.$.$.#.",
"#.#.=.=.$.$.$.$.#.$.%.&XOXX           /.t         .X*                       X X e ,.;.#.=.=.=.$.$.$.$.#.$.#.$.$.$.#.$.$.$.$.$.#.",
"#.#.$.$.$.$.$.#.#.$.&X2X    o       0 .X      .   } |   .                         & ] >.#.$.=.#.#.$.#.#.$.=.#.#.$.$.$.$.#.#.#.$.",
"#.$.$.$.$.=.$.%.#.9.iX9             ....  X       4 _.                                x <.$.$.=.$.-.$.$.$.$.#.#.$.#.#.$.$.$.$.$.",
"#.#.#.$.$.$.$.$.&.qXt.  o   .       ).r       X X   |.8                                 r 8.&.@.=.-.-.=.$.#.#.#.#.#.$.$.$.#.#.$.",
"$.#.+.-.$.#.=.#.$X>X                :Xo       x.T.D q...                                  : G.S.h i j g s $.#.$.#.#.$.#.#.=.#.#.",
"#.;.6./ f.f.d.B.uX:Xo.o...o.} _ ) { 5Xt 0 8 r C.U.b.M.OX4 1 2 S 7 H K G G 5 6 2 % @ 1 D 7 1 Y H.U V M j #.=.$.#.$.$.$.$.#.$.#.$.",
"+.5.q.R.T.I.Z.*XwX#X,XiXpXpXpXrXtX0X3X}.,X0X9X4X>X2X;XyXK.y.p.s.x.C.z.h.k.k.b.I.x.^ ^ i.^ g.b.T.k.E F k l O.$.-.-.$.%.$.#.#.$.$.",
"#.4.[ b.l.m.n.=XyX+X+XtXyXyXtXyXpX|.:X#X8XpXpXpXpXtX8XoXH.b.b.z.a.i.u.a.s.z.n.I.I.R.C.b.g.a.i.a.x.b.C.k.a.~ F x l &.=.-.=.$.$.=.",
"c a.~ u.~ k.U.4XyXpX5X_.[._._._.@X}.:X.X_._._.).@XtX3X).E.Z.I.R.I.I.I.n.z.a.u.u.g.x.C.P.I.I.b.x.^ ^ h.k.n.z.a.~ K E L k $.=.#.$.",
"v.R.R.T.R.I.Y.0X6X8XeX5X3X3X3X4X,X}.tX5X8X5X5X8X9XpX:X].Y.I.b.i.u.a.a.s.I.T.C.m.v.p.v.Y.Y.Y.Y.I.g.D H H K K G K K P h.b.j.@.$.$.",
"h.h.g.k.z.u.U.-X'._.XXqXpXtXtXpX5X.X,X+X+X,X3X+X+X:XoX{.P.x.^ z.i.! h.h.^ C.Q.5X7XrX.X4XeX7X8X*XD                   ~ *X7XA.$.$.",
"l.n.n.k.i.h.R K ^ E.K./.0XqX0XtX3X%Xo.* t t ' e ) o.oXK.C.~ x.5     X E b.b.;XpXwXpX|.6XuXwXyXyXj.                  ( yXyX<X$.$.",
"v.P.P.i.u.@       5 Y.[.@XtX0XtX4X.X5X3X.X+X.X+X+X>X%X~.s.h.S   .       u.I.H.!.L.!.N.J.J.J.J.L.D.G @ % @ % % % @ 2 M.L.J.!.c $.",
"h.~ R u.%         . P !.`.tX0XqX0X}.0XtXyXiXpXtXtXiX<X~.i.s.            1 k.Q Q Q Q y.y.~ ~ ~ ~ ^ u.~ ~ ~ Q ^ ~ ~ ~ u.~ Q s.d.#.",
"l.T.T.k.    _ (.9   # D._.5XtX0XpX}.3XtX0X0X0X0X0XtX%X!.n.T     } ^.o     s.C.n.m.C.N.V.i.2 5 5 5 2 5 5 5 5 5 5 5 5 3 2 G V.N.f ",
"z W R S   0 0XpX:X    E._.3XeX0X0X3X3X0X0X0X0X0X9XtX|.{.T.T   { pXpX/.    T T.C.U.R.0.e.b.1                             ~ e. .k ",
":.p   .   o.pX9X0X8   E.;XtXpXpXpXpXpXpXpXpXpXpXpXpX1X XW.R   ).pX0X5Xo   T W.m.s.s.s.p.g.a.T T T T T T T T T T T T P ~ h.p.Z.I ",
"#.$.+.+   | pX0X0X8   J X...X.X.X.............o...o.| _ W 6   (.pXtX,Xo   2 R H D D D G D G H H H H H K H H G K H H H G D G K > ",
"#.$.-.;   & 3XpX}.                                            ) tXpX}   o           . .   . . . . .                     . . . . ",
"$.$.-.p     0 | o       p $.$.$.#.%.%.%.%.%.n V $   o           _ '       . #.j Z b @.$.%.+.+.#.$.#.O               - #.#.%.#.$.",
"$.$.+.=.;             ; =.$.$.;.$.#.=.$.=.s N M i O                       , d @.M A d -.$.=.$.$.$.-.p             O O.=.#.$.$.$.",
"$.$.$.=.=.u = = = = u $.$.#.#.#.$.$.#.#.$.h A b h v , X O + ; y = = + - , Z N < q A q $.#.$.$.$.$.#.$.a ; + + + ; O.=.$.$.$.#.+.",
"#.$.=.$.#.-.$.$.$.$.=.#.$.$.=.#.$.$.#.$.#.n A M N Z n s -.#.#.-.$.$.$.$.@.w C N m V m @.$.#.$.$.#.#.+.=.$.#.$.$.=.#.$.$.$.#.#.$.",
"$.$.$.=.$.#.$.$.#.$.#.$.#.#.=.#.$.$.#.$.s m C Z M h O.$.$.=.#.#.#.$.=.$.=.#.j M Z C Z j =.$.$.#.#.$.$.#.$.#.$.$.#.#.$.$.$.$.$.$.",
"$.#.#.=.$.$.#.$.$.#.$.=.#.#.$.$.=.$.$.$.h N N n d =.$.#.#.$.$.#.$.#.#.$.%.#.$.s q N C q $.$.$.$.$.$.$.$.$.$.=.$.$.$.$.#.+.#.#.$.",
"#.$.$.$.$.$.$.$.$.$.=.$.$.$.$.$.$.$.$.#.n m < @.-.=.$.=.$.#.$.$.$.#.$.$.$.$.$.$.#.h N m @.-.$.#.$.$.$.#.$.$.$.$.$.$.$.#.#.#.$.$.",
"=.$.$.#.#.#.$.$.-.$.$.=.=.$.$.=.$.#.=.d b i -.=.#.$.=.$.#.#.#.#.$.#.$.#.#.$.$.#.#.$.s n g $.#.$.$.$.$.#.#.$.$.=.-.$.#.#.$.$.#.#.",
"$.$.$.$.=.-.$.$.#.$.$.$.$.$.#.$.#.$.$.d s =.$.$.$.$.#.$.$.#.#.#.$.#.#.#.$.$.#.$.+.#.-.@.d #.$.$.$.-.$.$.$.$.$.=.$.$.$.$.#.$.$.#.",
"$.#.#.$.$.$.=.$.$.$.$.#.#.$.$.$.$.$.$.#.-.#.#.$.$.$.#.#.$.$.$.#.$.$.$.#.$.#.#.$.$.$.#.=.$.#.$.$.$.$.=.$.$.$.$.$.$.$.=.$.#.$.#.$.",
"$.$.#.$.#.$.#.#.=.#.#.$.#.#.$.$.$.$.$.$.$.$.=.#.$.$.#.#.$.$.$.$.$.$.#.=.$.#.=.=.=.=.#.#.#.$.$.$.$.$.#.#.$.#.$.=.#.$.$.=.$.$.$.$.",
"$.#.$.$.=.$.#.$.$.$.$.#.$.$.#.$.$.$.=.#.#.$.$.$.#.#.$.$.#.$.=.$.$.$.$.=.$.$.$.#.$.#.#.$.$.=.$.#.$.$.$.#.$.$.$.$.=.#.#.#.$.#.$.$.",
"$.$.#.$.=.$.#.#.$.$.$.#.#.#.#.#.$.$.$.$.$.$.#.$.$.$.$.$.$.$.$.$.#.$.$.$.$.$.$.$.#.#.#.$.$.#.$.$.$.=.$.$.#.$.#.$.=.$.#.#.#.$.$.$.",
"#.$.$.=.-.$.$.$.$.=.$.$.$.#.$.$.$.$.$.$.$.#.#.#.=.=.$.#.$.$.$.#.#.$.=.#.=.$.=.$.#.#.#.$.$.$.$.$.$.$.=.$.#.=.$.$.#.$.#.#.$.$.$.=.",
"#.$.#.=.-.=.=.=.$.$.=.$.$.$.$.$.#.$.$.$.#.$.$.#.$.$.$.#.#.$.$.=.$.=.$.#.#.$.$.$.$.#.$.#.#.$.$.$.=.$.#.$.$.$.-.$.#.#.=.$.#.$.$.$.",
"$.#.#.$.$.$.$.$.$.#.$.$.$.=.$.$.$.$.$.#.#.$.$.$.$.$.$.$.$.#.#.$.$.$.$.$.$.$.#.$.$.$.$.$.$.#.$.=.-.$.$.$.$.=.$.$.$.#.=.$.#.#.$.$.",
"$.$.#.$.$.#.#.$.#.$.#.$.=.#.$.$.=.=.$.$.#.$.$.$.#.#.$.$.$.$.#.#.$.$.$.#.$.=.$.$.$.$.$.$.$.#.#.$.$.=.$.$.$.$.$.$.#.$.#.$.$.$.$.$.",
"=.$.#.$.$.$.$.$.#.#.$.$.$.$.$.=.$.#.#.$.$.$.#.$.$.$.$.#.#.$.$.#.$.$.$.$.$.$.$.$.#.$.#.$.$.$.$.#.=.$.$.$.$.$.$.$.#.#.#.#.$.=.$.$.",
"$.=.$.$.=.$.$.#.#.$.$.#.#.+.=.#.#.#.#.$.$.$.$.$.$.#.#.#.$.$.$.$.$.$.$.$.#.$.$.$.$.#.$.$.$.$.$.$.$.$.$.#.#.=.=.$.$.$.#.$.$.$.$.=.",
"$.$.$.$.=.$.#.#.+.#.$.#.$.$.#.$.#.#.$.$.$.#.#.$.$.$.#.#.$.$.#.$.=.$.$.$.$.#.$.$.$.#.$.$.$.$.$.$.#.#.$.$.#.$.=.$.$.=.#.#.$.$.$.$.",
"$.#.#.$.=.$.#.$.#.$.$.$.#.$.$.$.#.$.$.#.#.$.#.#.$.$.$.#.#.$.$.$.$.-.=.$.=.$.$.$.#.$.$.$.$.$.$.$.#.#.#.#.$.$.$.$.$.$.#.#.#.$.#.$.",
"-.=.$.$.$.$.$.+.$.$.$.#.$.#.#.$.$.#.$.$.$.$.#.+.#.$.$.$.#.$.$.$.$.$.$.#.#.#.#.$.#.$.$.#.=.$.$.$.$.#.#.#.$.=.$.=.$.#.#.#.#.#.$.=."
};
